<?xml version="1.0" encoding="UTF-8" standalone="no"?>
<!DOCTYPE svg PUBLIC "-//W3C//DTD SVG 1.1//EN"
 "http://www.w3.org/Graphics/SVG/1.1/DTD/svg11.dtd">
<!-- Generated by graphviz version 2.38.0 (20140413.2041)
 -->
<!-- Title: Tree Pages: 1 -->
<svg width="252pt" height="158pt"
 viewBox="0.00 0.00 251.54 158.00" xmlns="http://www.w3.org/2000/svg" xmlns:xlink="http://www.w3.org/1999/xlink">
<g id="graph0" class="graph" transform="scale(1 1) rotate(0) translate(4 154)">
<title>Tree</title>
<polygon fill="white" stroke="none" points="-4,4 -4,-154 247.537,-154 247.537,4 -4,4"/>
<!-- 0 -->
<g id="node1" class="node"><title>0</title>
<polygon fill="none" stroke="black" points="180.807,-150 61.7306,-150 61.7306,-86 180.807,-86 180.807,-150"/>
<text text-anchor="middle" x="121.269" y="-134.8" font-family="Times,serif" font-size="14.00">X2 &lt;= 0.448</text>
<text text-anchor="middle" x="121.269" y="-120.8" font-family="Times,serif" font-size="14.00">entropy = 1.0</text>
<text text-anchor="middle" x="121.269" y="-106.8" font-family="Times,serif" font-size="14.00">samples = 400</text>
<text text-anchor="middle" x="121.269" y="-92.8" font-family="Times,serif" font-size="14.00">value = [200, 200]</text>
</g>
<!-- 1 -->
<g id="node2" class="node"><title>1</title>
<polygon fill="#e58139" fill-opacity="0.690196" stroke="black" points="112.307,-50 0.230497,-50 0.230497,-0 112.307,-0 112.307,-50"/>
<text text-anchor="middle" x="56.2686" y="-34.8" font-family="Times,serif" font-size="14.00">entropy = 0.788</text>
<text text-anchor="middle" x="56.2686" y="-20.8" font-family="Times,serif" font-size="14.00">samples = 242</text>
<text text-anchor="middle" x="56.2686" y="-6.8" font-family="Times,serif" font-size="14.00">value = [185, 57]</text>
</g>
<!-- 0&#45;&gt;1 -->
<g id="edge1" class="edge"><title>0&#45;&gt;1</title>
<path fill="none" stroke="black" d="M99.081,-85.9375C92.7266,-77.0413 85.7854,-67.3236 79.3771,-58.352"/>
<polygon fill="black" stroke="black" points="82.0934,-56.1331 73.4329,-50.0301 76.3972,-60.2018 82.0934,-56.1331"/>
<text text-anchor="middle" x="69.3229" y="-70.4899" font-family="Times,serif" font-size="14.00">True</text>
</g>
<!-- 2 -->
<g id="node3" class="node"><title>2</title>
<polygon fill="#399de5" fill-opacity="0.894118" stroke="black" points="243.307,-50 131.23,-50 131.23,-0 243.307,-0 243.307,-50"/>
<text text-anchor="middle" x="187.269" y="-34.8" font-family="Times,serif" font-size="14.00">entropy = 0.453</text>
<text text-anchor="middle" x="187.269" y="-20.8" font-family="Times,serif" font-size="14.00">samples = 158</text>
<text text-anchor="middle" x="187.269" y="-6.8" font-family="Times,serif" font-size="14.00">value = [15, 143]</text>
</g>
<!-- 0&#45;&gt;2 -->
<g id="edge2" class="edge"><title>0&#45;&gt;2</title>
<path fill="none" stroke="black" d="M143.797,-85.9375C150.25,-77.0413 157.298,-67.3236 163.804,-58.352"/>
<polygon fill="black" stroke="black" points="166.802,-60.1801 169.84,-50.0301 161.136,-56.0702 166.802,-60.1801"/>
<text text-anchor="middle" x="173.772" y="-70.519" font-family="Times,serif" font-size="14.00">False</text>
</g>
</g>
</svg>
