<?xml version="1.0" encoding="UTF-8" standalone="no"?>
<!DOCTYPE svg PUBLIC "-//W3C//DTD SVG 1.1//EN"
 "http://www.w3.org/Graphics/SVG/1.1/DTD/svg11.dtd">
<!-- Generated by graphviz version 2.38.0 (20140413.2041)
 -->
<!-- Title: Tree Pages: 1 -->
<svg width="473pt" height="658pt"
 viewBox="0.00 0.00 473.04 658.00" xmlns="http://www.w3.org/2000/svg" xmlns:xlink="http://www.w3.org/1999/xlink">
<g id="graph0" class="graph" transform="scale(1 1) rotate(0) translate(4 654)">
<title>Tree</title>
<polygon fill="white" stroke="none" points="-4,4 -4,-654 469.037,-654 469.037,4 -4,4"/>
<!-- 0 -->
<g id="node1" class="node"><title>0</title>
<polygon fill="none" stroke="black" points="296.807,-650 177.731,-650 177.731,-586 296.807,-586 296.807,-650"/>
<text text-anchor="middle" x="237.269" y="-634.8" font-family="Times,serif" font-size="14.00">X2 &lt;= 0.448</text>
<text text-anchor="middle" x="237.269" y="-620.8" font-family="Times,serif" font-size="14.00">gini = 0.5</text>
<text text-anchor="middle" x="237.269" y="-606.8" font-family="Times,serif" font-size="14.00">samples = 400</text>
<text text-anchor="middle" x="237.269" y="-592.8" font-family="Times,serif" font-size="14.00">value = [200, 200]</text>
</g>
<!-- 1 -->
<g id="node2" class="node"><title>1</title>
<polygon fill="#e58139" fill-opacity="0.690196" stroke="black" points="228.307,-550 116.23,-550 116.23,-486 228.307,-486 228.307,-550"/>
<text text-anchor="middle" x="172.269" y="-534.8" font-family="Times,serif" font-size="14.00">X1 &lt;= &#45;0.533</text>
<text text-anchor="middle" x="172.269" y="-520.8" font-family="Times,serif" font-size="14.00">gini = 0.36</text>
<text text-anchor="middle" x="172.269" y="-506.8" font-family="Times,serif" font-size="14.00">samples = 242</text>
<text text-anchor="middle" x="172.269" y="-492.8" font-family="Times,serif" font-size="14.00">value = [185, 57]</text>
</g>
<!-- 0&#45;&gt;1 -->
<g id="edge1" class="edge"><title>0&#45;&gt;1</title>
<path fill="none" stroke="black" d="M216.702,-585.992C210.952,-577.323 204.624,-567.782 198.59,-558.685"/>
<polygon fill="black" stroke="black" points="201.368,-556.541 192.924,-550.142 195.535,-560.411 201.368,-556.541"/>
<text text-anchor="middle" x="187.964" y="-570.445" font-family="Times,serif" font-size="14.00">True</text>
</g>
<!-- 2 -->
<g id="node13" class="node"><title>2</title>
<polygon fill="#399de5" fill-opacity="0.894118" stroke="black" points="359.307,-550 247.23,-550 247.23,-486 359.307,-486 359.307,-550"/>
<text text-anchor="middle" x="303.269" y="-534.8" font-family="Times,serif" font-size="14.00">X1 &lt;= 1.321</text>
<text text-anchor="middle" x="303.269" y="-520.8" font-family="Times,serif" font-size="14.00">gini = 0.172</text>
<text text-anchor="middle" x="303.269" y="-506.8" font-family="Times,serif" font-size="14.00">samples = 158</text>
<text text-anchor="middle" x="303.269" y="-492.8" font-family="Times,serif" font-size="14.00">value = [15, 143]</text>
</g>
<!-- 0&#45;&gt;2 -->
<g id="edge12" class="edge"><title>0&#45;&gt;2</title>
<path fill="none" stroke="black" d="M258.151,-585.992C263.99,-577.323 270.416,-567.782 276.542,-558.685"/>
<polygon fill="black" stroke="black" points="279.612,-560.392 282.295,-550.142 273.806,-556.482 279.612,-560.392"/>
<text text-anchor="middle" x="287.083" y="-570.48" font-family="Times,serif" font-size="14.00">False</text>
</g>
<!-- 3 -->
<g id="node3" class="node"><title>3</title>
<polygon fill="#399de5" stroke="black" points="98.3067,-443 0.230363,-443 0.230363,-393 98.3067,-393 98.3067,-443"/>
<text text-anchor="middle" x="49.2686" y="-427.8" font-family="Times,serif" font-size="14.00">gini = 0.0</text>
<text text-anchor="middle" x="49.2686" y="-413.8" font-family="Times,serif" font-size="14.00">samples = 25</text>
<text text-anchor="middle" x="49.2686" y="-399.8" font-family="Times,serif" font-size="14.00">value = [0, 25]</text>
</g>
<!-- 1&#45;&gt;3 -->
<g id="edge2" class="edge"><title>1&#45;&gt;3</title>
<path fill="none" stroke="black" d="M133.351,-485.992C118.742,-474.353 102.16,-461.141 87.6043,-449.544"/>
<polygon fill="black" stroke="black" points="89.7542,-446.782 79.752,-443.288 85.3921,-452.257 89.7542,-446.782"/>
</g>
<!-- 4 -->
<g id="node4" class="node"><title>4</title>
<polygon fill="#e58139" fill-opacity="0.827451" stroke="black" points="229.307,-450 117.23,-450 117.23,-386 229.307,-386 229.307,-450"/>
<text text-anchor="middle" x="173.269" y="-434.8" font-family="Times,serif" font-size="14.00">X2 &lt;= &#45;0.08</text>
<text text-anchor="middle" x="173.269" y="-420.8" font-family="Times,serif" font-size="14.00">gini = 0.251</text>
<text text-anchor="middle" x="173.269" y="-406.8" font-family="Times,serif" font-size="14.00">samples = 217</text>
<text text-anchor="middle" x="173.269" y="-392.8" font-family="Times,serif" font-size="14.00">value = [185, 32]</text>
</g>
<!-- 1&#45;&gt;4 -->
<g id="edge3" class="edge"><title>1&#45;&gt;4</title>
<path fill="none" stroke="black" d="M172.585,-485.992C172.668,-477.859 172.759,-468.959 172.846,-460.378"/>
<polygon fill="black" stroke="black" points="176.348,-460.178 172.951,-450.142 169.349,-460.106 176.348,-460.178"/>
</g>
<!-- 7 -->
<g id="node5" class="node"><title>7</title>
<polygon fill="#e58139" stroke="black" points="163.793,-343 58.7441,-343 58.7441,-293 163.793,-293 163.793,-343"/>
<text text-anchor="middle" x="111.269" y="-327.8" font-family="Times,serif" font-size="14.00">gini = 0.0</text>
<text text-anchor="middle" x="111.269" y="-313.8" font-family="Times,serif" font-size="14.00">samples = 114</text>
<text text-anchor="middle" x="111.269" y="-299.8" font-family="Times,serif" font-size="14.00">value = [114, 0]</text>
</g>
<!-- 4&#45;&gt;7 -->
<g id="edge4" class="edge"><title>4&#45;&gt;7</title>
<path fill="none" stroke="black" d="M153.651,-385.992C146.765,-375.107 139.008,-362.847 132.031,-351.818"/>
<polygon fill="black" stroke="black" points="134.938,-349.867 126.634,-343.288 129.023,-353.61 134.938,-349.867"/>
</g>
<!-- 8 -->
<g id="node6" class="node"><title>8</title>
<polygon fill="#e58139" fill-opacity="0.549020" stroke="black" points="286.807,-350 181.73,-350 181.73,-286 286.807,-286 286.807,-350"/>
<text text-anchor="middle" x="234.269" y="-334.8" font-family="Times,serif" font-size="14.00">X1 &lt;= 1.486</text>
<text text-anchor="middle" x="234.269" y="-320.8" font-family="Times,serif" font-size="14.00">gini = 0.428</text>
<text text-anchor="middle" x="234.269" y="-306.8" font-family="Times,serif" font-size="14.00">samples = 103</text>
<text text-anchor="middle" x="234.269" y="-292.8" font-family="Times,serif" font-size="14.00">value = [71, 32]</text>
</g>
<!-- 4&#45;&gt;8 -->
<g id="edge5" class="edge"><title>4&#45;&gt;8</title>
<path fill="none" stroke="black" d="M192.569,-385.992C197.965,-377.323 203.904,-367.782 209.567,-358.685"/>
<polygon fill="black" stroke="black" points="212.571,-360.482 214.884,-350.142 206.628,-356.783 212.571,-360.482"/>
</g>
<!-- 9 -->
<g id="node7" class="node"><title>9</title>
<polygon fill="#e58139" fill-opacity="0.109804" stroke="black" points="226.807,-250 121.73,-250 121.73,-186 226.807,-186 226.807,-250"/>
<text text-anchor="middle" x="174.269" y="-234.8" font-family="Times,serif" font-size="14.00">X1 &lt;= 0.566</text>
<text text-anchor="middle" x="174.269" y="-220.8" font-family="Times,serif" font-size="14.00">gini = 0.498</text>
<text text-anchor="middle" x="174.269" y="-206.8" font-family="Times,serif" font-size="14.00">samples = 68</text>
<text text-anchor="middle" x="174.269" y="-192.8" font-family="Times,serif" font-size="14.00">value = [36, 32]</text>
</g>
<!-- 8&#45;&gt;9 -->
<g id="edge6" class="edge"><title>8&#45;&gt;9</title>
<path fill="none" stroke="black" d="M215.284,-285.992C209.977,-277.323 204.135,-267.782 198.565,-258.685"/>
<polygon fill="black" stroke="black" points="201.542,-256.843 193.335,-250.142 195.572,-260.499 201.542,-256.843"/>
</g>
<!-- 10 -->
<g id="node12" class="node"><title>10</title>
<polygon fill="#e58139" stroke="black" points="343.307,-243 245.23,-243 245.23,-193 343.307,-193 343.307,-243"/>
<text text-anchor="middle" x="294.269" y="-227.8" font-family="Times,serif" font-size="14.00">gini = 0.0</text>
<text text-anchor="middle" x="294.269" y="-213.8" font-family="Times,serif" font-size="14.00">samples = 35</text>
<text text-anchor="middle" x="294.269" y="-199.8" font-family="Times,serif" font-size="14.00">value = [35, 0]</text>
</g>
<!-- 8&#45;&gt;10 -->
<g id="edge11" class="edge"><title>8&#45;&gt;10</title>
<path fill="none" stroke="black" d="M253.253,-285.992C259.917,-275.107 267.424,-262.847 274.176,-251.818"/>
<polygon fill="black" stroke="black" points="277.162,-253.644 279.399,-243.288 271.192,-249.989 277.162,-253.644"/>
</g>
<!-- 11 -->
<g id="node8" class="node"><title>11</title>
<polygon fill="#e58139" fill-opacity="0.972549" stroke="black" points="165.307,-150 67.2304,-150 67.2304,-86 165.307,-86 165.307,-150"/>
<text text-anchor="middle" x="116.269" y="-134.8" font-family="Times,serif" font-size="14.00">X1 &lt;= &#45;0.318</text>
<text text-anchor="middle" x="116.269" y="-120.8" font-family="Times,serif" font-size="14.00">gini = 0.056</text>
<text text-anchor="middle" x="116.269" y="-106.8" font-family="Times,serif" font-size="14.00">samples = 35</text>
<text text-anchor="middle" x="116.269" y="-92.8" font-family="Times,serif" font-size="14.00">value = [34, 1]</text>
</g>
<!-- 9&#45;&gt;11 -->
<g id="edge7" class="edge"><title>9&#45;&gt;11</title>
<path fill="none" stroke="black" d="M155.917,-185.992C150.839,-177.413 145.256,-167.978 139.922,-158.966"/>
<polygon fill="black" stroke="black" points="142.805,-156.966 134.7,-150.142 136.781,-160.531 142.805,-156.966"/>
</g>
<!-- 12 -->
<g id="node11" class="node"><title>12</title>
<polygon fill="#399de5" fill-opacity="0.937255" stroke="black" points="282.307,-143 184.23,-143 184.23,-93 282.307,-93 282.307,-143"/>
<text text-anchor="middle" x="233.269" y="-127.8" font-family="Times,serif" font-size="14.00">gini = 0.114</text>
<text text-anchor="middle" x="233.269" y="-113.8" font-family="Times,serif" font-size="14.00">samples = 33</text>
<text text-anchor="middle" x="233.269" y="-99.8" font-family="Times,serif" font-size="14.00">value = [2, 31]</text>
</g>
<!-- 9&#45;&gt;12 -->
<g id="edge10" class="edge"><title>9&#45;&gt;12</title>
<path fill="none" stroke="black" d="M192.937,-185.992C199.425,-175.215 206.725,-163.09 213.313,-152.146"/>
<polygon fill="black" stroke="black" points="216.487,-153.66 218.646,-143.288 210.49,-150.05 216.487,-153.66"/>
</g>
<!-- 13 -->
<g id="node9" class="node"><title>13</title>
<polygon fill="none" stroke="black" points="105.807,-50 14.7303,-50 14.7303,-0 105.807,-0 105.807,-50"/>
<text text-anchor="middle" x="60.2686" y="-34.8" font-family="Times,serif" font-size="14.00">gini = 0.5</text>
<text text-anchor="middle" x="60.2686" y="-20.8" font-family="Times,serif" font-size="14.00">samples = 2</text>
<text text-anchor="middle" x="60.2686" y="-6.8" font-family="Times,serif" font-size="14.00">value = [1, 1]</text>
</g>
<!-- 11&#45;&gt;13 -->
<g id="edge8" class="edge"><title>11&#45;&gt;13</title>
<path fill="none" stroke="black" d="M97.1532,-85.9375C91.735,-77.133 85.8217,-67.5239 80.3484,-58.6297"/>
<polygon fill="black" stroke="black" points="83.2781,-56.7123 75.0563,-50.0301 77.3165,-60.381 83.2781,-56.7123"/>
</g>
<!-- 14 -->
<g id="node10" class="node"><title>14</title>
<polygon fill="#e58139" stroke="black" points="222.307,-50 124.23,-50 124.23,-0 222.307,-0 222.307,-50"/>
<text text-anchor="middle" x="173.269" y="-34.8" font-family="Times,serif" font-size="14.00">gini = 0.0</text>
<text text-anchor="middle" x="173.269" y="-20.8" font-family="Times,serif" font-size="14.00">samples = 33</text>
<text text-anchor="middle" x="173.269" y="-6.8" font-family="Times,serif" font-size="14.00">value = [33, 0]</text>
</g>
<!-- 11&#45;&gt;14 -->
<g id="edge9" class="edge"><title>11&#45;&gt;14</title>
<path fill="none" stroke="black" d="M135.725,-85.9375C141.24,-77.133 147.259,-67.5239 152.83,-58.6297"/>
<polygon fill="black" stroke="black" points="155.875,-60.3628 158.217,-50.0301 149.942,-56.6469 155.875,-60.3628"/>
</g>
<!-- 5 -->
<g id="node14" class="node"><title>5</title>
<polygon fill="#399de5" fill-opacity="0.956863" stroke="black" points="354.807,-443 249.73,-443 249.73,-393 354.807,-393 354.807,-443"/>
<text text-anchor="middle" x="302.269" y="-427.8" font-family="Times,serif" font-size="14.00">gini = 0.077</text>
<text text-anchor="middle" x="302.269" y="-413.8" font-family="Times,serif" font-size="14.00">samples = 149</text>
<text text-anchor="middle" x="302.269" y="-399.8" font-family="Times,serif" font-size="14.00">value = [6, 143]</text>
</g>
<!-- 2&#45;&gt;5 -->
<g id="edge13" class="edge"><title>2&#45;&gt;5</title>
<path fill="none" stroke="black" d="M302.952,-485.992C302.847,-475.646 302.728,-464.057 302.62,-453.465"/>
<polygon fill="black" stroke="black" points="306.118,-453.251 302.516,-443.288 299.119,-453.323 306.118,-453.251"/>
</g>
<!-- 6 -->
<g id="node15" class="node"><title>6</title>
<polygon fill="#e58139" stroke="black" points="464.807,-443 373.73,-443 373.73,-393 464.807,-393 464.807,-443"/>
<text text-anchor="middle" x="419.269" y="-427.8" font-family="Times,serif" font-size="14.00">gini = 0.0</text>
<text text-anchor="middle" x="419.269" y="-413.8" font-family="Times,serif" font-size="14.00">samples = 9</text>
<text text-anchor="middle" x="419.269" y="-399.8" font-family="Times,serif" font-size="14.00">value = [9, 0]</text>
</g>
<!-- 2&#45;&gt;6 -->
<g id="edge14" class="edge"><title>2&#45;&gt;6</title>
<path fill="none" stroke="black" d="M339.972,-485.992C353.621,-474.461 369.098,-461.385 382.733,-449.866"/>
<polygon fill="black" stroke="black" points="385.14,-452.415 390.52,-443.288 380.622,-447.068 385.14,-452.415"/>
</g>
</g>
</svg>
