<?xml version="1.0" encoding="UTF-8" standalone="no"?>
<!DOCTYPE svg PUBLIC "-//W3C//DTD SVG 1.1//EN"
 "http://www.w3.org/Graphics/SVG/1.1/DTD/svg11.dtd">
<!-- Generated by graphviz version 2.38.0 (20140413.2041)
 -->
<!-- Title: Tree Pages: 1 -->
<svg width="535pt" height="658pt"
 viewBox="0.00 0.00 534.54 658.00" xmlns="http://www.w3.org/2000/svg" xmlns:xlink="http://www.w3.org/1999/xlink">
<g id="graph0" class="graph" transform="scale(1 1) rotate(0) translate(4 654)">
<title>Tree</title>
<polygon fill="white" stroke="none" points="-4,4 -4,-654 530.537,-654 530.537,4 -4,4"/>
<!-- 0 -->
<g id="node1" class="node"><title>0</title>
<polygon fill="none" stroke="black" points="327.807,-650 208.731,-650 208.731,-586 327.807,-586 327.807,-650"/>
<text text-anchor="middle" x="268.269" y="-634.8" font-family="Times,serif" font-size="14.00">X2 &lt;= 0.448</text>
<text text-anchor="middle" x="268.269" y="-620.8" font-family="Times,serif" font-size="14.00">gini = 0.5</text>
<text text-anchor="middle" x="268.269" y="-606.8" font-family="Times,serif" font-size="14.00">samples = 400</text>
<text text-anchor="middle" x="268.269" y="-592.8" font-family="Times,serif" font-size="14.00">value = [200, 200]</text>
</g>
<!-- 1 -->
<g id="node2" class="node"><title>1</title>
<polygon fill="#e58139" fill-opacity="0.690196" stroke="black" points="259.307,-550 147.23,-550 147.23,-486 259.307,-486 259.307,-550"/>
<text text-anchor="middle" x="203.269" y="-534.8" font-family="Times,serif" font-size="14.00">X1 &lt;= &#45;0.533</text>
<text text-anchor="middle" x="203.269" y="-520.8" font-family="Times,serif" font-size="14.00">gini = 0.36</text>
<text text-anchor="middle" x="203.269" y="-506.8" font-family="Times,serif" font-size="14.00">samples = 242</text>
<text text-anchor="middle" x="203.269" y="-492.8" font-family="Times,serif" font-size="14.00">value = [185, 57]</text>
</g>
<!-- 0&#45;&gt;1 -->
<g id="edge1" class="edge"><title>0&#45;&gt;1</title>
<path fill="none" stroke="black" d="M247.702,-585.992C241.952,-577.323 235.624,-567.782 229.59,-558.685"/>
<polygon fill="black" stroke="black" points="232.368,-556.541 223.924,-550.142 226.535,-560.411 232.368,-556.541"/>
<text text-anchor="middle" x="218.964" y="-570.445" font-family="Times,serif" font-size="14.00">True</text>
</g>
<!-- 10 -->
<g id="node11" class="node"><title>10</title>
<polygon fill="#399de5" fill-opacity="0.894118" stroke="black" points="390.307,-550 278.23,-550 278.23,-486 390.307,-486 390.307,-550"/>
<text text-anchor="middle" x="334.269" y="-534.8" font-family="Times,serif" font-size="14.00">X1 &lt;= 1.321</text>
<text text-anchor="middle" x="334.269" y="-520.8" font-family="Times,serif" font-size="14.00">gini = 0.172</text>
<text text-anchor="middle" x="334.269" y="-506.8" font-family="Times,serif" font-size="14.00">samples = 158</text>
<text text-anchor="middle" x="334.269" y="-492.8" font-family="Times,serif" font-size="14.00">value = [15, 143]</text>
</g>
<!-- 0&#45;&gt;10 -->
<g id="edge10" class="edge"><title>0&#45;&gt;10</title>
<path fill="none" stroke="black" d="M289.151,-585.992C294.99,-577.323 301.416,-567.782 307.542,-558.685"/>
<polygon fill="black" stroke="black" points="310.612,-560.392 313.295,-550.142 304.806,-556.482 310.612,-560.392"/>
<text text-anchor="middle" x="318.083" y="-570.48" font-family="Times,serif" font-size="14.00">False</text>
</g>
<!-- 2 -->
<g id="node3" class="node"><title>2</title>
<polygon fill="#399de5" stroke="black" points="129.307,-443 31.2304,-443 31.2304,-393 129.307,-393 129.307,-443"/>
<text text-anchor="middle" x="80.2686" y="-427.8" font-family="Times,serif" font-size="14.00">gini = 0.0</text>
<text text-anchor="middle" x="80.2686" y="-413.8" font-family="Times,serif" font-size="14.00">samples = 25</text>
<text text-anchor="middle" x="80.2686" y="-399.8" font-family="Times,serif" font-size="14.00">value = [0, 25]</text>
</g>
<!-- 1&#45;&gt;2 -->
<g id="edge2" class="edge"><title>1&#45;&gt;2</title>
<path fill="none" stroke="black" d="M164.351,-485.992C149.742,-474.353 133.16,-461.141 118.604,-449.544"/>
<polygon fill="black" stroke="black" points="120.754,-446.782 110.752,-443.288 116.392,-452.257 120.754,-446.782"/>
</g>
<!-- 3 -->
<g id="node4" class="node"><title>3</title>
<polygon fill="#e58139" fill-opacity="0.827451" stroke="black" points="260.307,-450 148.23,-450 148.23,-386 260.307,-386 260.307,-450"/>
<text text-anchor="middle" x="204.269" y="-434.8" font-family="Times,serif" font-size="14.00">X2 &lt;= &#45;0.08</text>
<text text-anchor="middle" x="204.269" y="-420.8" font-family="Times,serif" font-size="14.00">gini = 0.251</text>
<text text-anchor="middle" x="204.269" y="-406.8" font-family="Times,serif" font-size="14.00">samples = 217</text>
<text text-anchor="middle" x="204.269" y="-392.8" font-family="Times,serif" font-size="14.00">value = [185, 32]</text>
</g>
<!-- 1&#45;&gt;3 -->
<g id="edge3" class="edge"><title>1&#45;&gt;3</title>
<path fill="none" stroke="black" d="M203.585,-485.992C203.668,-477.859 203.759,-468.959 203.846,-460.378"/>
<polygon fill="black" stroke="black" points="207.348,-460.178 203.951,-450.142 200.349,-460.106 207.348,-460.178"/>
</g>
<!-- 4 -->
<g id="node5" class="node"><title>4</title>
<polygon fill="#e58139" stroke="black" points="136.793,-343 31.7441,-343 31.7441,-293 136.793,-293 136.793,-343"/>
<text text-anchor="middle" x="84.2686" y="-327.8" font-family="Times,serif" font-size="14.00">gini = 0.0</text>
<text text-anchor="middle" x="84.2686" y="-313.8" font-family="Times,serif" font-size="14.00">samples = 114</text>
<text text-anchor="middle" x="84.2686" y="-299.8" font-family="Times,serif" font-size="14.00">value = [114, 0]</text>
</g>
<!-- 3&#45;&gt;4 -->
<g id="edge4" class="edge"><title>3&#45;&gt;4</title>
<path fill="none" stroke="black" d="M166.3,-385.992C152.18,-374.461 136.169,-361.385 122.064,-349.866"/>
<polygon fill="black" stroke="black" points="123.968,-346.902 114.009,-343.288 119.54,-352.324 123.968,-346.902"/>
</g>
<!-- 5 -->
<g id="node6" class="node"><title>5</title>
<polygon fill="#e58139" fill-opacity="0.549020" stroke="black" points="259.807,-350 154.73,-350 154.73,-286 259.807,-286 259.807,-350"/>
<text text-anchor="middle" x="207.269" y="-334.8" font-family="Times,serif" font-size="14.00">X1 &lt;= 1.486</text>
<text text-anchor="middle" x="207.269" y="-320.8" font-family="Times,serif" font-size="14.00">gini = 0.428</text>
<text text-anchor="middle" x="207.269" y="-306.8" font-family="Times,serif" font-size="14.00">samples = 103</text>
<text text-anchor="middle" x="207.269" y="-292.8" font-family="Times,serif" font-size="14.00">value = [71, 32]</text>
</g>
<!-- 3&#45;&gt;5 -->
<g id="edge5" class="edge"><title>3&#45;&gt;5</title>
<path fill="none" stroke="black" d="M205.218,-385.992C205.467,-377.859 205.739,-368.959 206.002,-360.378"/>
<polygon fill="black" stroke="black" points="209.508,-360.245 206.315,-350.142 202.511,-360.031 209.508,-360.245"/>
</g>
<!-- 6 -->
<g id="node7" class="node"><title>6</title>
<polygon fill="#e58139" fill-opacity="0.109804" stroke="black" points="155.807,-250 50.7304,-250 50.7304,-186 155.807,-186 155.807,-250"/>
<text text-anchor="middle" x="103.269" y="-234.8" font-family="Times,serif" font-size="14.00">X1 &lt;= 0.566</text>
<text text-anchor="middle" x="103.269" y="-220.8" font-family="Times,serif" font-size="14.00">gini = 0.498</text>
<text text-anchor="middle" x="103.269" y="-206.8" font-family="Times,serif" font-size="14.00">samples = 68</text>
<text text-anchor="middle" x="103.269" y="-192.8" font-family="Times,serif" font-size="14.00">value = [36, 32]</text>
</g>
<!-- 5&#45;&gt;6 -->
<g id="edge6" class="edge"><title>5&#45;&gt;6</title>
<path fill="none" stroke="black" d="M174.362,-285.992C164.593,-276.787 153.781,-266.598 143.597,-257.002"/>
<polygon fill="black" stroke="black" points="145.996,-254.453 136.318,-250.142 141.195,-259.548 145.996,-254.453"/>
</g>
<!-- 9 -->
<g id="node10" class="node"><title>9</title>
<polygon fill="#e58139" stroke="black" points="272.307,-243 174.23,-243 174.23,-193 272.307,-193 272.307,-243"/>
<text text-anchor="middle" x="223.269" y="-227.8" font-family="Times,serif" font-size="14.00">gini = 0.0</text>
<text text-anchor="middle" x="223.269" y="-213.8" font-family="Times,serif" font-size="14.00">samples = 35</text>
<text text-anchor="middle" x="223.269" y="-199.8" font-family="Times,serif" font-size="14.00">value = [35, 0]</text>
</g>
<!-- 5&#45;&gt;9 -->
<g id="edge9" class="edge"><title>5&#45;&gt;9</title>
<path fill="none" stroke="black" d="M212.331,-285.992C214.02,-275.646 215.912,-264.057 217.642,-253.465"/>
<polygon fill="black" stroke="black" points="221.146,-253.721 219.303,-243.288 214.238,-252.593 221.146,-253.721"/>
</g>
<!-- 7 -->
<g id="node8" class="node"><title>7</title>
<polygon fill="#e58139" fill-opacity="0.972549" stroke="black" points="98.3067,-143 0.230363,-143 0.230363,-93 98.3067,-93 98.3067,-143"/>
<text text-anchor="middle" x="49.2686" y="-127.8" font-family="Times,serif" font-size="14.00">gini = 0.056</text>
<text text-anchor="middle" x="49.2686" y="-113.8" font-family="Times,serif" font-size="14.00">samples = 35</text>
<text text-anchor="middle" x="49.2686" y="-99.8" font-family="Times,serif" font-size="14.00">value = [34, 1]</text>
</g>
<!-- 6&#45;&gt;7 -->
<g id="edge7" class="edge"><title>6&#45;&gt;7</title>
<path fill="none" stroke="black" d="M86.1826,-185.992C80.2442,-175.215 73.5628,-163.09 67.5328,-152.146"/>
<polygon fill="black" stroke="black" points="70.5431,-150.357 62.6515,-143.288 64.4122,-153.735 70.5431,-150.357"/>
</g>
<!-- 8 -->
<g id="node9" class="node"><title>8</title>
<polygon fill="#399de5" fill-opacity="0.937255" stroke="black" points="215.307,-143 117.23,-143 117.23,-93 215.307,-93 215.307,-143"/>
<text text-anchor="middle" x="166.269" y="-127.8" font-family="Times,serif" font-size="14.00">gini = 0.114</text>
<text text-anchor="middle" x="166.269" y="-113.8" font-family="Times,serif" font-size="14.00">samples = 33</text>
<text text-anchor="middle" x="166.269" y="-99.8" font-family="Times,serif" font-size="14.00">value = [2, 31]</text>
</g>
<!-- 6&#45;&gt;8 -->
<g id="edge8" class="edge"><title>6&#45;&gt;8</title>
<path fill="none" stroke="black" d="M123.202,-185.992C130.2,-175.107 138.081,-162.847 145.171,-151.818"/>
<polygon fill="black" stroke="black" points="148.192,-153.592 150.655,-143.288 142.303,-149.807 148.192,-153.592"/>
</g>
<!-- 11 -->
<g id="node12" class="node"><title>11</title>
<polygon fill="#399de5" fill-opacity="0.956863" stroke="black" points="385.807,-450 280.73,-450 280.73,-386 385.807,-386 385.807,-450"/>
<text text-anchor="middle" x="333.269" y="-434.8" font-family="Times,serif" font-size="14.00">X2 &lt;= 0.632</text>
<text text-anchor="middle" x="333.269" y="-420.8" font-family="Times,serif" font-size="14.00">gini = 0.077</text>
<text text-anchor="middle" x="333.269" y="-406.8" font-family="Times,serif" font-size="14.00">samples = 149</text>
<text text-anchor="middle" x="333.269" y="-392.8" font-family="Times,serif" font-size="14.00">value = [6, 143]</text>
</g>
<!-- 10&#45;&gt;11 -->
<g id="edge11" class="edge"><title>10&#45;&gt;11</title>
<path fill="none" stroke="black" d="M333.952,-485.992C333.869,-477.859 333.778,-468.959 333.691,-460.378"/>
<polygon fill="black" stroke="black" points="337.188,-460.106 333.586,-450.142 330.189,-460.178 337.188,-460.106"/>
</g>
<!-- 20 -->
<g id="node21" class="node"><title>20</title>
<polygon fill="#e58139" stroke="black" points="495.807,-443 404.73,-443 404.73,-393 495.807,-393 495.807,-443"/>
<text text-anchor="middle" x="450.269" y="-427.8" font-family="Times,serif" font-size="14.00">gini = 0.0</text>
<text text-anchor="middle" x="450.269" y="-413.8" font-family="Times,serif" font-size="14.00">samples = 9</text>
<text text-anchor="middle" x="450.269" y="-399.8" font-family="Times,serif" font-size="14.00">value = [9, 0]</text>
</g>
<!-- 10&#45;&gt;20 -->
<g id="edge20" class="edge"><title>10&#45;&gt;20</title>
<path fill="none" stroke="black" d="M370.972,-485.992C384.621,-474.461 400.098,-461.385 413.733,-449.866"/>
<polygon fill="black" stroke="black" points="416.14,-452.415 421.52,-443.288 411.622,-447.068 416.14,-452.415"/>
</g>
<!-- 12 -->
<g id="node13" class="node"><title>12</title>
<polygon fill="#399de5" fill-opacity="0.870588" stroke="black" points="379.307,-343 281.23,-343 281.23,-293 379.307,-293 379.307,-343"/>
<text text-anchor="middle" x="330.269" y="-327.8" font-family="Times,serif" font-size="14.00">gini = 0.202</text>
<text text-anchor="middle" x="330.269" y="-313.8" font-family="Times,serif" font-size="14.00">samples = 35</text>
<text text-anchor="middle" x="330.269" y="-299.8" font-family="Times,serif" font-size="14.00">value = [4, 31]</text>
</g>
<!-- 11&#45;&gt;12 -->
<g id="edge12" class="edge"><title>11&#45;&gt;12</title>
<path fill="none" stroke="black" d="M332.319,-385.992C332.003,-375.646 331.648,-364.057 331.324,-353.465"/>
<polygon fill="black" stroke="black" points="334.816,-353.176 331.012,-343.288 327.82,-353.39 334.816,-353.176"/>
</g>
<!-- 13 -->
<g id="node14" class="node"><title>13</title>
<polygon fill="#399de5" fill-opacity="0.980392" stroke="black" points="502.793,-350 397.744,-350 397.744,-286 502.793,-286 502.793,-350"/>
<text text-anchor="middle" x="450.269" y="-334.8" font-family="Times,serif" font-size="14.00">X2 &lt;= 0.805</text>
<text text-anchor="middle" x="450.269" y="-320.8" font-family="Times,serif" font-size="14.00">gini = 0.034</text>
<text text-anchor="middle" x="450.269" y="-306.8" font-family="Times,serif" font-size="14.00">samples = 114</text>
<text text-anchor="middle" x="450.269" y="-292.8" font-family="Times,serif" font-size="14.00">value = [2, 112]</text>
</g>
<!-- 11&#45;&gt;13 -->
<g id="edge13" class="edge"><title>11&#45;&gt;13</title>
<path fill="none" stroke="black" d="M370.288,-385.992C381.385,-376.698 393.679,-366.4 405.232,-356.723"/>
<polygon fill="black" stroke="black" points="407.67,-359.247 413.088,-350.142 403.175,-353.881 407.67,-359.247"/>
</g>
<!-- 14 -->
<g id="node15" class="node"><title>14</title>
<polygon fill="#399de5" fill-opacity="0.949020" stroke="black" points="409.307,-250 311.23,-250 311.23,-186 409.307,-186 409.307,-250"/>
<text text-anchor="middle" x="360.269" y="-234.8" font-family="Times,serif" font-size="14.00">X2 &lt;= 0.801</text>
<text text-anchor="middle" x="360.269" y="-220.8" font-family="Times,serif" font-size="14.00">gini = 0.093</text>
<text text-anchor="middle" x="360.269" y="-206.8" font-family="Times,serif" font-size="14.00">samples = 41</text>
<text text-anchor="middle" x="360.269" y="-192.8" font-family="Times,serif" font-size="14.00">value = [2, 39]</text>
</g>
<!-- 13&#45;&gt;14 -->
<g id="edge14" class="edge"><title>13&#45;&gt;14</title>
<path fill="none" stroke="black" d="M421.792,-285.992C413.502,-276.966 404.344,-266.993 395.683,-257.562"/>
<polygon fill="black" stroke="black" points="398.211,-255.14 388.869,-250.142 393.055,-259.875 398.211,-255.14"/>
</g>
<!-- 19 -->
<g id="node20" class="node"><title>19</title>
<polygon fill="#399de5" stroke="black" points="526.307,-243 428.23,-243 428.23,-193 526.307,-193 526.307,-243"/>
<text text-anchor="middle" x="477.269" y="-227.8" font-family="Times,serif" font-size="14.00">gini = 0.0</text>
<text text-anchor="middle" x="477.269" y="-213.8" font-family="Times,serif" font-size="14.00">samples = 73</text>
<text text-anchor="middle" x="477.269" y="-199.8" font-family="Times,serif" font-size="14.00">value = [0, 73]</text>
</g>
<!-- 13&#45;&gt;19 -->
<g id="edge19" class="edge"><title>13&#45;&gt;19</title>
<path fill="none" stroke="black" d="M458.812,-285.992C461.692,-275.538 464.921,-263.816 467.864,-253.134"/>
<polygon fill="black" stroke="black" points="471.295,-253.858 470.577,-243.288 464.547,-251.999 471.295,-253.858"/>
</g>
<!-- 15 -->
<g id="node16" class="node"><title>15</title>
<polygon fill="#399de5" fill-opacity="0.972549" stroke="black" points="336.307,-150 238.23,-150 238.23,-86 336.307,-86 336.307,-150"/>
<text text-anchor="middle" x="287.269" y="-134.8" font-family="Times,serif" font-size="14.00">X2 &lt;= 0.721</text>
<text text-anchor="middle" x="287.269" y="-120.8" font-family="Times,serif" font-size="14.00">gini = 0.049</text>
<text text-anchor="middle" x="287.269" y="-106.8" font-family="Times,serif" font-size="14.00">samples = 40</text>
<text text-anchor="middle" x="287.269" y="-92.8" font-family="Times,serif" font-size="14.00">value = [1, 39]</text>
</g>
<!-- 14&#45;&gt;15 -->
<g id="edge15" class="edge"><title>14&#45;&gt;15</title>
<path fill="none" stroke="black" d="M337.171,-185.992C330.647,-177.234 323.459,-167.585 316.62,-158.404"/>
<polygon fill="black" stroke="black" points="319.247,-156.071 310.467,-150.142 313.633,-160.253 319.247,-156.071"/>
</g>
<!-- 18 -->
<g id="node19" class="node"><title>18</title>
<polygon fill="#e58139" stroke="black" points="445.807,-143 354.73,-143 354.73,-93 445.807,-93 445.807,-143"/>
<text text-anchor="middle" x="400.269" y="-127.8" font-family="Times,serif" font-size="14.00">gini = 0.0</text>
<text text-anchor="middle" x="400.269" y="-113.8" font-family="Times,serif" font-size="14.00">samples = 1</text>
<text text-anchor="middle" x="400.269" y="-99.8" font-family="Times,serif" font-size="14.00">value = [1, 0]</text>
</g>
<!-- 14&#45;&gt;18 -->
<g id="edge18" class="edge"><title>14&#45;&gt;18</title>
<path fill="none" stroke="black" d="M372.925,-185.992C377.236,-175.431 382.075,-163.574 386.471,-152.804"/>
<polygon fill="black" stroke="black" points="389.817,-153.869 390.355,-143.288 383.336,-151.223 389.817,-153.869"/>
</g>
<!-- 16 -->
<g id="node17" class="node"><title>16</title>
<polygon fill="#399de5" stroke="black" points="277.307,-50 179.23,-50 179.23,-0 277.307,-0 277.307,-50"/>
<text text-anchor="middle" x="228.269" y="-34.8" font-family="Times,serif" font-size="14.00">gini = 0.0</text>
<text text-anchor="middle" x="228.269" y="-20.8" font-family="Times,serif" font-size="14.00">samples = 20</text>
<text text-anchor="middle" x="228.269" y="-6.8" font-family="Times,serif" font-size="14.00">value = [0, 20]</text>
</g>
<!-- 15&#45;&gt;16 -->
<g id="edge16" class="edge"><title>15&#45;&gt;16</title>
<path fill="none" stroke="black" d="M267.129,-85.9375C261.421,-77.133 255.191,-67.5239 249.424,-58.6297"/>
<polygon fill="black" stroke="black" points="252.225,-56.5168 243.848,-50.0301 246.352,-60.3249 252.225,-56.5168"/>
</g>
<!-- 17 -->
<g id="node18" class="node"><title>17</title>
<polygon fill="#399de5" fill-opacity="0.949020" stroke="black" points="394.307,-50 296.23,-50 296.23,-0 394.307,-0 394.307,-50"/>
<text text-anchor="middle" x="345.269" y="-34.8" font-family="Times,serif" font-size="14.00">gini = 0.095</text>
<text text-anchor="middle" x="345.269" y="-20.8" font-family="Times,serif" font-size="14.00">samples = 20</text>
<text text-anchor="middle" x="345.269" y="-6.8" font-family="Times,serif" font-size="14.00">value = [1, 19]</text>
</g>
<!-- 15&#45;&gt;17 -->
<g id="edge17" class="edge"><title>15&#45;&gt;17</title>
<path fill="none" stroke="black" d="M307.067,-85.9375C312.678,-77.133 318.803,-67.5239 324.472,-58.6297"/>
<polygon fill="black" stroke="black" points="327.529,-60.3441 329.953,-50.0301 321.626,-56.5817 327.529,-60.3441"/>
</g>
</g>
</svg>
