<?xml version="1.0" encoding="UTF-8" standalone="no"?>
<!DOCTYPE svg PUBLIC "-//W3C//DTD SVG 1.1//EN"
 "http://www.w3.org/Graphics/SVG/1.1/DTD/svg11.dtd">
<!-- Generated by graphviz version 2.38.0 (20140413.2041)
 -->
<!-- Title: Tree Pages: 1 -->
<svg width="473pt" height="358pt"
 viewBox="0.00 0.00 473.04 358.00" xmlns="http://www.w3.org/2000/svg" xmlns:xlink="http://www.w3.org/1999/xlink">
<g id="graph0" class="graph" transform="scale(1 1) rotate(0) translate(4 354)">
<title>Tree</title>
<polygon fill="white" stroke="none" points="-4,4 -4,-354 469.037,-354 469.037,4 -4,4"/>
<!-- 0 -->
<g id="node1" class="node"><title>0</title>
<polygon fill="none" stroke="black" points="296.807,-350 177.731,-350 177.731,-286 296.807,-286 296.807,-350"/>
<text text-anchor="middle" x="237.269" y="-334.8" font-family="Times,serif" font-size="14.00">X2 &lt;= 0.448</text>
<text text-anchor="middle" x="237.269" y="-320.8" font-family="Times,serif" font-size="14.00">gini = 0.5</text>
<text text-anchor="middle" x="237.269" y="-306.8" font-family="Times,serif" font-size="14.00">samples = 400</text>
<text text-anchor="middle" x="237.269" y="-292.8" font-family="Times,serif" font-size="14.00">value = [200, 200]</text>
</g>
<!-- 1 -->
<g id="node2" class="node"><title>1</title>
<polygon fill="#e58139" fill-opacity="0.690196" stroke="black" points="228.307,-250 116.23,-250 116.23,-186 228.307,-186 228.307,-250"/>
<text text-anchor="middle" x="172.269" y="-234.8" font-family="Times,serif" font-size="14.00">X1 &lt;= &#45;0.533</text>
<text text-anchor="middle" x="172.269" y="-220.8" font-family="Times,serif" font-size="14.00">gini = 0.36</text>
<text text-anchor="middle" x="172.269" y="-206.8" font-family="Times,serif" font-size="14.00">samples = 242</text>
<text text-anchor="middle" x="172.269" y="-192.8" font-family="Times,serif" font-size="14.00">value = [185, 57]</text>
</g>
<!-- 0&#45;&gt;1 -->
<g id="edge1" class="edge"><title>0&#45;&gt;1</title>
<path fill="none" stroke="black" d="M216.702,-285.992C210.952,-277.323 204.624,-267.782 198.59,-258.685"/>
<polygon fill="black" stroke="black" points="201.368,-256.541 192.924,-250.142 195.535,-260.411 201.368,-256.541"/>
<text text-anchor="middle" x="187.964" y="-270.445" font-family="Times,serif" font-size="14.00">True</text>
</g>
<!-- 2 -->
<g id="node7" class="node"><title>2</title>
<polygon fill="#399de5" fill-opacity="0.894118" stroke="black" points="359.307,-250 247.23,-250 247.23,-186 359.307,-186 359.307,-250"/>
<text text-anchor="middle" x="303.269" y="-234.8" font-family="Times,serif" font-size="14.00">X1 &lt;= 1.321</text>
<text text-anchor="middle" x="303.269" y="-220.8" font-family="Times,serif" font-size="14.00">gini = 0.172</text>
<text text-anchor="middle" x="303.269" y="-206.8" font-family="Times,serif" font-size="14.00">samples = 158</text>
<text text-anchor="middle" x="303.269" y="-192.8" font-family="Times,serif" font-size="14.00">value = [15, 143]</text>
</g>
<!-- 0&#45;&gt;2 -->
<g id="edge6" class="edge"><title>0&#45;&gt;2</title>
<path fill="none" stroke="black" d="M258.151,-285.992C263.99,-277.323 270.416,-267.782 276.542,-258.685"/>
<polygon fill="black" stroke="black" points="279.612,-260.392 282.295,-250.142 273.806,-256.482 279.612,-260.392"/>
<text text-anchor="middle" x="287.083" y="-270.48" font-family="Times,serif" font-size="14.00">False</text>
</g>
<!-- 3 -->
<g id="node3" class="node"><title>3</title>
<polygon fill="#399de5" stroke="black" points="98.3067,-143 0.230363,-143 0.230363,-93 98.3067,-93 98.3067,-143"/>
<text text-anchor="middle" x="49.2686" y="-127.8" font-family="Times,serif" font-size="14.00">gini = 0.0</text>
<text text-anchor="middle" x="49.2686" y="-113.8" font-family="Times,serif" font-size="14.00">samples = 25</text>
<text text-anchor="middle" x="49.2686" y="-99.8" font-family="Times,serif" font-size="14.00">value = [0, 25]</text>
</g>
<!-- 1&#45;&gt;3 -->
<g id="edge2" class="edge"><title>1&#45;&gt;3</title>
<path fill="none" stroke="black" d="M133.351,-185.992C118.742,-174.353 102.16,-161.141 87.6043,-149.544"/>
<polygon fill="black" stroke="black" points="89.7542,-146.782 79.752,-143.288 85.3921,-152.257 89.7542,-146.782"/>
</g>
<!-- 4 -->
<g id="node4" class="node"><title>4</title>
<polygon fill="#e58139" fill-opacity="0.827451" stroke="black" points="229.307,-150 117.23,-150 117.23,-86 229.307,-86 229.307,-150"/>
<text text-anchor="middle" x="173.269" y="-134.8" font-family="Times,serif" font-size="14.00">X2 &lt;= &#45;0.08</text>
<text text-anchor="middle" x="173.269" y="-120.8" font-family="Times,serif" font-size="14.00">gini = 0.251</text>
<text text-anchor="middle" x="173.269" y="-106.8" font-family="Times,serif" font-size="14.00">samples = 217</text>
<text text-anchor="middle" x="173.269" y="-92.8" font-family="Times,serif" font-size="14.00">value = [185, 32]</text>
</g>
<!-- 1&#45;&gt;4 -->
<g id="edge3" class="edge"><title>1&#45;&gt;4</title>
<path fill="none" stroke="black" d="M172.585,-185.992C172.668,-177.859 172.759,-168.959 172.846,-160.378"/>
<polygon fill="black" stroke="black" points="176.348,-160.178 172.951,-150.142 169.349,-160.106 176.348,-160.178"/>
</g>
<!-- 7 -->
<g id="node5" class="node"><title>7</title>
<polygon fill="#e58139" stroke="black" points="163.793,-50 58.7441,-50 58.7441,-0 163.793,-0 163.793,-50"/>
<text text-anchor="middle" x="111.269" y="-34.8" font-family="Times,serif" font-size="14.00">gini = 0.0</text>
<text text-anchor="middle" x="111.269" y="-20.8" font-family="Times,serif" font-size="14.00">samples = 114</text>
<text text-anchor="middle" x="111.269" y="-6.8" font-family="Times,serif" font-size="14.00">value = [114, 0]</text>
</g>
<!-- 4&#45;&gt;7 -->
<g id="edge4" class="edge"><title>4&#45;&gt;7</title>
<path fill="none" stroke="black" d="M152.105,-85.9375C146.044,-77.0413 139.423,-67.3236 133.311,-58.352"/>
<polygon fill="black" stroke="black" points="136.164,-56.3236 127.641,-50.0301 130.379,-60.265 136.164,-56.3236"/>
</g>
<!-- 8 -->
<g id="node6" class="node"><title>8</title>
<polygon fill="#e58139" fill-opacity="0.549020" stroke="black" points="286.807,-50 181.73,-50 181.73,-0 286.807,-0 286.807,-50"/>
<text text-anchor="middle" x="234.269" y="-34.8" font-family="Times,serif" font-size="14.00">gini = 0.428</text>
<text text-anchor="middle" x="234.269" y="-20.8" font-family="Times,serif" font-size="14.00">samples = 103</text>
<text text-anchor="middle" x="234.269" y="-6.8" font-family="Times,serif" font-size="14.00">value = [71, 32]</text>
</g>
<!-- 4&#45;&gt;8 -->
<g id="edge5" class="edge"><title>4&#45;&gt;8</title>
<path fill="none" stroke="black" d="M194.091,-85.9375C200.054,-77.0413 206.568,-67.3236 212.582,-58.352"/>
<polygon fill="black" stroke="black" points="215.5,-60.2854 218.16,-50.0301 209.685,-56.3877 215.5,-60.2854"/>
</g>
<!-- 5 -->
<g id="node8" class="node"><title>5</title>
<polygon fill="#399de5" fill-opacity="0.956863" stroke="black" points="354.807,-143 249.73,-143 249.73,-93 354.807,-93 354.807,-143"/>
<text text-anchor="middle" x="302.269" y="-127.8" font-family="Times,serif" font-size="14.00">gini = 0.077</text>
<text text-anchor="middle" x="302.269" y="-113.8" font-family="Times,serif" font-size="14.00">samples = 149</text>
<text text-anchor="middle" x="302.269" y="-99.8" font-family="Times,serif" font-size="14.00">value = [6, 143]</text>
</g>
<!-- 2&#45;&gt;5 -->
<g id="edge7" class="edge"><title>2&#45;&gt;5</title>
<path fill="none" stroke="black" d="M302.952,-185.992C302.847,-175.646 302.728,-164.057 302.62,-153.465"/>
<polygon fill="black" stroke="black" points="306.118,-153.251 302.516,-143.288 299.119,-153.323 306.118,-153.251"/>
</g>
<!-- 6 -->
<g id="node9" class="node"><title>6</title>
<polygon fill="#e58139" stroke="black" points="464.807,-143 373.73,-143 373.73,-93 464.807,-93 464.807,-143"/>
<text text-anchor="middle" x="419.269" y="-127.8" font-family="Times,serif" font-size="14.00">gini = 0.0</text>
<text text-anchor="middle" x="419.269" y="-113.8" font-family="Times,serif" font-size="14.00">samples = 9</text>
<text text-anchor="middle" x="419.269" y="-99.8" font-family="Times,serif" font-size="14.00">value = [9, 0]</text>
</g>
<!-- 2&#45;&gt;6 -->
<g id="edge8" class="edge"><title>2&#45;&gt;6</title>
<path fill="none" stroke="black" d="M339.972,-185.992C353.621,-174.461 369.098,-161.385 382.733,-149.866"/>
<polygon fill="black" stroke="black" points="385.14,-152.415 390.52,-143.288 380.622,-147.068 385.14,-152.415"/>
</g>
</g>
</svg>
