<?xml version="1.0" encoding="UTF-8" standalone="no"?>
<!DOCTYPE svg PUBLIC "-//W3C//DTD SVG 1.1//EN"
 "http://www.w3.org/Graphics/SVG/1.1/DTD/svg11.dtd">
<!-- Generated by graphviz version 2.38.0 (20140413.2041)
 -->
<!-- Title: Tree Pages: 1 -->
<svg width="473pt" height="258pt"
 viewBox="0.00 0.00 473.04 258.00" xmlns="http://www.w3.org/2000/svg" xmlns:xlink="http://www.w3.org/1999/xlink">
<g id="graph0" class="graph" transform="scale(1 1) rotate(0) translate(4 254)">
<title>Tree</title>
<polygon fill="white" stroke="none" points="-4,4 -4,-254 469.037,-254 469.037,4 -4,4"/>
<!-- 0 -->
<g id="node1" class="node"><title>0</title>
<polygon fill="none" stroke="black" points="296.807,-250 177.731,-250 177.731,-186 296.807,-186 296.807,-250"/>
<text text-anchor="middle" x="237.269" y="-234.8" font-family="Times,serif" font-size="14.00">X2 &lt;= 0.448</text>
<text text-anchor="middle" x="237.269" y="-220.8" font-family="Times,serif" font-size="14.00">gini = 0.5</text>
<text text-anchor="middle" x="237.269" y="-206.8" font-family="Times,serif" font-size="14.00">samples = 400</text>
<text text-anchor="middle" x="237.269" y="-192.8" font-family="Times,serif" font-size="14.00">value = [200, 200]</text>
</g>
<!-- 1 -->
<g id="node2" class="node"><title>1</title>
<polygon fill="#e58139" fill-opacity="0.690196" stroke="black" points="228.307,-150 116.23,-150 116.23,-86 228.307,-86 228.307,-150"/>
<text text-anchor="middle" x="172.269" y="-134.8" font-family="Times,serif" font-size="14.00">X1 &lt;= &#45;0.533</text>
<text text-anchor="middle" x="172.269" y="-120.8" font-family="Times,serif" font-size="14.00">gini = 0.36</text>
<text text-anchor="middle" x="172.269" y="-106.8" font-family="Times,serif" font-size="14.00">samples = 242</text>
<text text-anchor="middle" x="172.269" y="-92.8" font-family="Times,serif" font-size="14.00">value = [185, 57]</text>
</g>
<!-- 0&#45;&gt;1 -->
<g id="edge1" class="edge"><title>0&#45;&gt;1</title>
<path fill="none" stroke="black" d="M216.702,-185.992C210.952,-177.323 204.624,-167.782 198.59,-158.685"/>
<polygon fill="black" stroke="black" points="201.368,-156.541 192.924,-150.142 195.535,-160.411 201.368,-156.541"/>
<text text-anchor="middle" x="187.964" y="-170.445" font-family="Times,serif" font-size="14.00">True</text>
</g>
<!-- 4 -->
<g id="node5" class="node"><title>4</title>
<polygon fill="#399de5" fill-opacity="0.894118" stroke="black" points="359.307,-150 247.23,-150 247.23,-86 359.307,-86 359.307,-150"/>
<text text-anchor="middle" x="303.269" y="-134.8" font-family="Times,serif" font-size="14.00">X1 &lt;= 1.321</text>
<text text-anchor="middle" x="303.269" y="-120.8" font-family="Times,serif" font-size="14.00">gini = 0.172</text>
<text text-anchor="middle" x="303.269" y="-106.8" font-family="Times,serif" font-size="14.00">samples = 158</text>
<text text-anchor="middle" x="303.269" y="-92.8" font-family="Times,serif" font-size="14.00">value = [15, 143]</text>
</g>
<!-- 0&#45;&gt;4 -->
<g id="edge4" class="edge"><title>0&#45;&gt;4</title>
<path fill="none" stroke="black" d="M258.151,-185.992C263.99,-177.323 270.416,-167.782 276.542,-158.685"/>
<polygon fill="black" stroke="black" points="279.612,-160.392 282.295,-150.142 273.806,-156.482 279.612,-160.392"/>
<text text-anchor="middle" x="287.083" y="-170.48" font-family="Times,serif" font-size="14.00">False</text>
</g>
<!-- 2 -->
<g id="node3" class="node"><title>2</title>
<polygon fill="#399de5" stroke="black" points="98.3067,-50 0.230363,-50 0.230363,-0 98.3067,-0 98.3067,-50"/>
<text text-anchor="middle" x="49.2686" y="-34.8" font-family="Times,serif" font-size="14.00">gini = 0.0</text>
<text text-anchor="middle" x="49.2686" y="-20.8" font-family="Times,serif" font-size="14.00">samples = 25</text>
<text text-anchor="middle" x="49.2686" y="-6.8" font-family="Times,serif" font-size="14.00">value = [0, 25]</text>
</g>
<!-- 1&#45;&gt;2 -->
<g id="edge2" class="edge"><title>1&#45;&gt;2</title>
<path fill="none" stroke="black" d="M130.283,-85.9375C117.267,-76.3076 102.949,-65.7151 90.0184,-56.1483"/>
<polygon fill="black" stroke="black" points="91.8695,-53.164 81.7488,-50.0301 87.7062,-58.7914 91.8695,-53.164"/>
</g>
<!-- 3 -->
<g id="node4" class="node"><title>3</title>
<polygon fill="#e58139" fill-opacity="0.827451" stroke="black" points="229.307,-50 117.23,-50 117.23,-0 229.307,-0 229.307,-50"/>
<text text-anchor="middle" x="173.269" y="-34.8" font-family="Times,serif" font-size="14.00">gini = 0.251</text>
<text text-anchor="middle" x="173.269" y="-20.8" font-family="Times,serif" font-size="14.00">samples = 217</text>
<text text-anchor="middle" x="173.269" y="-6.8" font-family="Times,serif" font-size="14.00">value = [185, 32]</text>
</g>
<!-- 1&#45;&gt;3 -->
<g id="edge3" class="edge"><title>1&#45;&gt;3</title>
<path fill="none" stroke="black" d="M172.61,-85.9375C172.701,-77.6833 172.799,-68.7219 172.892,-60.3053"/>
<polygon fill="black" stroke="black" points="176.394,-60.068 173.004,-50.0301 169.395,-59.991 176.394,-60.068"/>
</g>
<!-- 5 -->
<g id="node6" class="node"><title>5</title>
<polygon fill="#399de5" fill-opacity="0.956863" stroke="black" points="354.807,-50 249.73,-50 249.73,-0 354.807,-0 354.807,-50"/>
<text text-anchor="middle" x="302.269" y="-34.8" font-family="Times,serif" font-size="14.00">gini = 0.077</text>
<text text-anchor="middle" x="302.269" y="-20.8" font-family="Times,serif" font-size="14.00">samples = 149</text>
<text text-anchor="middle" x="302.269" y="-6.8" font-family="Times,serif" font-size="14.00">value = [6, 143]</text>
</g>
<!-- 4&#45;&gt;5 -->
<g id="edge5" class="edge"><title>4&#45;&gt;5</title>
<path fill="none" stroke="black" d="M302.927,-85.9375C302.837,-77.6833 302.738,-68.7219 302.646,-60.3053"/>
<polygon fill="black" stroke="black" points="306.142,-59.991 302.533,-50.0301 299.143,-60.068 306.142,-59.991"/>
</g>
<!-- 6 -->
<g id="node7" class="node"><title>6</title>
<polygon fill="#e58139" stroke="black" points="464.807,-50 373.73,-50 373.73,-0 464.807,-0 464.807,-50"/>
<text text-anchor="middle" x="419.269" y="-34.8" font-family="Times,serif" font-size="14.00">gini = 0.0</text>
<text text-anchor="middle" x="419.269" y="-20.8" font-family="Times,serif" font-size="14.00">samples = 9</text>
<text text-anchor="middle" x="419.269" y="-6.8" font-family="Times,serif" font-size="14.00">value = [9, 0]</text>
</g>
<!-- 4&#45;&gt;6 -->
<g id="edge6" class="edge"><title>4&#45;&gt;6</title>
<path fill="none" stroke="black" d="M342.865,-85.9375C355.023,-76.3993 368.386,-65.9167 380.489,-56.4219"/>
<polygon fill="black" stroke="black" points="382.929,-58.9561 388.637,-50.0301 378.609,-53.4486 382.929,-58.9561"/>
</g>
</g>
</svg>
