<?xml version="1.0" encoding="UTF-8" standalone="no"?>
<!DOCTYPE svg PUBLIC "-//W3C//DTD SVG 1.1//EN"
 "http://www.w3.org/Graphics/SVG/1.1/DTD/svg11.dtd">
<!-- Generated by graphviz version 2.38.0 (20140413.2041)
 -->
<!-- Title: Tree Pages: 1 -->
<svg width="473pt" height="458pt"
 viewBox="0.00 0.00 473.04 458.00" xmlns="http://www.w3.org/2000/svg" xmlns:xlink="http://www.w3.org/1999/xlink">
<g id="graph0" class="graph" transform="scale(1 1) rotate(0) translate(4 454)">
<title>Tree</title>
<polygon fill="white" stroke="none" points="-4,4 -4,-454 469.037,-454 469.037,4 -4,4"/>
<!-- 0 -->
<g id="node1" class="node"><title>0</title>
<polygon fill="none" stroke="black" points="296.807,-450 177.731,-450 177.731,-386 296.807,-386 296.807,-450"/>
<text text-anchor="middle" x="237.269" y="-434.8" font-family="Times,serif" font-size="14.00">X2 &lt;= 0.448</text>
<text text-anchor="middle" x="237.269" y="-420.8" font-family="Times,serif" font-size="14.00">gini = 0.5</text>
<text text-anchor="middle" x="237.269" y="-406.8" font-family="Times,serif" font-size="14.00">samples = 400</text>
<text text-anchor="middle" x="237.269" y="-392.8" font-family="Times,serif" font-size="14.00">value = [200, 200]</text>
</g>
<!-- 1 -->
<g id="node2" class="node"><title>1</title>
<polygon fill="#e58139" fill-opacity="0.690196" stroke="black" points="228.307,-350 116.23,-350 116.23,-286 228.307,-286 228.307,-350"/>
<text text-anchor="middle" x="172.269" y="-334.8" font-family="Times,serif" font-size="14.00">X1 &lt;= &#45;0.533</text>
<text text-anchor="middle" x="172.269" y="-320.8" font-family="Times,serif" font-size="14.00">gini = 0.36</text>
<text text-anchor="middle" x="172.269" y="-306.8" font-family="Times,serif" font-size="14.00">samples = 242</text>
<text text-anchor="middle" x="172.269" y="-292.8" font-family="Times,serif" font-size="14.00">value = [185, 57]</text>
</g>
<!-- 0&#45;&gt;1 -->
<g id="edge1" class="edge"><title>0&#45;&gt;1</title>
<path fill="none" stroke="black" d="M216.702,-385.992C210.952,-377.323 204.624,-367.782 198.59,-358.685"/>
<polygon fill="black" stroke="black" points="201.368,-356.541 192.924,-350.142 195.535,-360.411 201.368,-356.541"/>
<text text-anchor="middle" x="187.964" y="-370.445" font-family="Times,serif" font-size="14.00">True</text>
</g>
<!-- 2 -->
<g id="node9" class="node"><title>2</title>
<polygon fill="#399de5" fill-opacity="0.894118" stroke="black" points="359.307,-350 247.23,-350 247.23,-286 359.307,-286 359.307,-350"/>
<text text-anchor="middle" x="303.269" y="-334.8" font-family="Times,serif" font-size="14.00">X1 &lt;= 1.321</text>
<text text-anchor="middle" x="303.269" y="-320.8" font-family="Times,serif" font-size="14.00">gini = 0.172</text>
<text text-anchor="middle" x="303.269" y="-306.8" font-family="Times,serif" font-size="14.00">samples = 158</text>
<text text-anchor="middle" x="303.269" y="-292.8" font-family="Times,serif" font-size="14.00">value = [15, 143]</text>
</g>
<!-- 0&#45;&gt;2 -->
<g id="edge8" class="edge"><title>0&#45;&gt;2</title>
<path fill="none" stroke="black" d="M258.151,-385.992C263.99,-377.323 270.416,-367.782 276.542,-358.685"/>
<polygon fill="black" stroke="black" points="279.612,-360.392 282.295,-350.142 273.806,-356.482 279.612,-360.392"/>
<text text-anchor="middle" x="287.083" y="-370.48" font-family="Times,serif" font-size="14.00">False</text>
</g>
<!-- 3 -->
<g id="node3" class="node"><title>3</title>
<polygon fill="#399de5" stroke="black" points="98.3067,-243 0.230363,-243 0.230363,-193 98.3067,-193 98.3067,-243"/>
<text text-anchor="middle" x="49.2686" y="-227.8" font-family="Times,serif" font-size="14.00">gini = 0.0</text>
<text text-anchor="middle" x="49.2686" y="-213.8" font-family="Times,serif" font-size="14.00">samples = 25</text>
<text text-anchor="middle" x="49.2686" y="-199.8" font-family="Times,serif" font-size="14.00">value = [0, 25]</text>
</g>
<!-- 1&#45;&gt;3 -->
<g id="edge2" class="edge"><title>1&#45;&gt;3</title>
<path fill="none" stroke="black" d="M133.351,-285.992C118.742,-274.353 102.16,-261.141 87.6043,-249.544"/>
<polygon fill="black" stroke="black" points="89.7542,-246.782 79.752,-243.288 85.3921,-252.257 89.7542,-246.782"/>
</g>
<!-- 4 -->
<g id="node4" class="node"><title>4</title>
<polygon fill="#e58139" fill-opacity="0.827451" stroke="black" points="229.307,-250 117.23,-250 117.23,-186 229.307,-186 229.307,-250"/>
<text text-anchor="middle" x="173.269" y="-234.8" font-family="Times,serif" font-size="14.00">X2 &lt;= &#45;0.08</text>
<text text-anchor="middle" x="173.269" y="-220.8" font-family="Times,serif" font-size="14.00">gini = 0.251</text>
<text text-anchor="middle" x="173.269" y="-206.8" font-family="Times,serif" font-size="14.00">samples = 217</text>
<text text-anchor="middle" x="173.269" y="-192.8" font-family="Times,serif" font-size="14.00">value = [185, 32]</text>
</g>
<!-- 1&#45;&gt;4 -->
<g id="edge3" class="edge"><title>1&#45;&gt;4</title>
<path fill="none" stroke="black" d="M172.585,-285.992C172.668,-277.859 172.759,-268.959 172.846,-260.378"/>
<polygon fill="black" stroke="black" points="176.348,-260.178 172.951,-250.142 169.349,-260.106 176.348,-260.178"/>
</g>
<!-- 7 -->
<g id="node5" class="node"><title>7</title>
<polygon fill="#e58139" stroke="black" points="163.793,-143 58.7441,-143 58.7441,-93 163.793,-93 163.793,-143"/>
<text text-anchor="middle" x="111.269" y="-127.8" font-family="Times,serif" font-size="14.00">gini = 0.0</text>
<text text-anchor="middle" x="111.269" y="-113.8" font-family="Times,serif" font-size="14.00">samples = 114</text>
<text text-anchor="middle" x="111.269" y="-99.8" font-family="Times,serif" font-size="14.00">value = [114, 0]</text>
</g>
<!-- 4&#45;&gt;7 -->
<g id="edge4" class="edge"><title>4&#45;&gt;7</title>
<path fill="none" stroke="black" d="M153.651,-185.992C146.765,-175.107 139.008,-162.847 132.031,-151.818"/>
<polygon fill="black" stroke="black" points="134.938,-149.867 126.634,-143.288 129.023,-153.61 134.938,-149.867"/>
</g>
<!-- 8 -->
<g id="node6" class="node"><title>8</title>
<polygon fill="#e58139" fill-opacity="0.549020" stroke="black" points="286.807,-150 181.73,-150 181.73,-86 286.807,-86 286.807,-150"/>
<text text-anchor="middle" x="234.269" y="-134.8" font-family="Times,serif" font-size="14.00">X1 &lt;= 1.486</text>
<text text-anchor="middle" x="234.269" y="-120.8" font-family="Times,serif" font-size="14.00">gini = 0.428</text>
<text text-anchor="middle" x="234.269" y="-106.8" font-family="Times,serif" font-size="14.00">samples = 103</text>
<text text-anchor="middle" x="234.269" y="-92.8" font-family="Times,serif" font-size="14.00">value = [71, 32]</text>
</g>
<!-- 4&#45;&gt;8 -->
<g id="edge5" class="edge"><title>4&#45;&gt;8</title>
<path fill="none" stroke="black" d="M192.569,-185.992C197.965,-177.323 203.904,-167.782 209.567,-158.685"/>
<polygon fill="black" stroke="black" points="212.571,-160.482 214.884,-150.142 206.628,-156.783 212.571,-160.482"/>
</g>
<!-- 9 -->
<g id="node7" class="node"><title>9</title>
<polygon fill="#e58139" fill-opacity="0.109804" stroke="black" points="226.807,-50 121.73,-50 121.73,-0 226.807,-0 226.807,-50"/>
<text text-anchor="middle" x="174.269" y="-34.8" font-family="Times,serif" font-size="14.00">gini = 0.498</text>
<text text-anchor="middle" x="174.269" y="-20.8" font-family="Times,serif" font-size="14.00">samples = 68</text>
<text text-anchor="middle" x="174.269" y="-6.8" font-family="Times,serif" font-size="14.00">value = [36, 32]</text>
</g>
<!-- 8&#45;&gt;9 -->
<g id="edge6" class="edge"><title>8&#45;&gt;9</title>
<path fill="none" stroke="black" d="M213.788,-85.9375C207.983,-77.133 201.647,-67.5239 195.783,-58.6297"/>
<polygon fill="black" stroke="black" points="198.539,-56.4521 190.113,-50.0301 192.695,-60.3053 198.539,-56.4521"/>
</g>
<!-- 10 -->
<g id="node8" class="node"><title>10</title>
<polygon fill="#e58139" stroke="black" points="343.307,-50 245.23,-50 245.23,-0 343.307,-0 343.307,-50"/>
<text text-anchor="middle" x="294.269" y="-34.8" font-family="Times,serif" font-size="14.00">gini = 0.0</text>
<text text-anchor="middle" x="294.269" y="-20.8" font-family="Times,serif" font-size="14.00">samples = 35</text>
<text text-anchor="middle" x="294.269" y="-6.8" font-family="Times,serif" font-size="14.00">value = [35, 0]</text>
</g>
<!-- 8&#45;&gt;10 -->
<g id="edge7" class="edge"><title>8&#45;&gt;10</title>
<path fill="none" stroke="black" d="M254.749,-85.9375C260.554,-77.133 266.89,-67.5239 272.754,-58.6297"/>
<polygon fill="black" stroke="black" points="275.842,-60.3053 278.425,-50.0301 269.998,-56.4521 275.842,-60.3053"/>
</g>
<!-- 5 -->
<g id="node10" class="node"><title>5</title>
<polygon fill="#399de5" fill-opacity="0.956863" stroke="black" points="354.807,-243 249.73,-243 249.73,-193 354.807,-193 354.807,-243"/>
<text text-anchor="middle" x="302.269" y="-227.8" font-family="Times,serif" font-size="14.00">gini = 0.077</text>
<text text-anchor="middle" x="302.269" y="-213.8" font-family="Times,serif" font-size="14.00">samples = 149</text>
<text text-anchor="middle" x="302.269" y="-199.8" font-family="Times,serif" font-size="14.00">value = [6, 143]</text>
</g>
<!-- 2&#45;&gt;5 -->
<g id="edge9" class="edge"><title>2&#45;&gt;5</title>
<path fill="none" stroke="black" d="M302.952,-285.992C302.847,-275.646 302.728,-264.057 302.62,-253.465"/>
<polygon fill="black" stroke="black" points="306.118,-253.251 302.516,-243.288 299.119,-253.323 306.118,-253.251"/>
</g>
<!-- 6 -->
<g id="node11" class="node"><title>6</title>
<polygon fill="#e58139" stroke="black" points="464.807,-243 373.73,-243 373.73,-193 464.807,-193 464.807,-243"/>
<text text-anchor="middle" x="419.269" y="-227.8" font-family="Times,serif" font-size="14.00">gini = 0.0</text>
<text text-anchor="middle" x="419.269" y="-213.8" font-family="Times,serif" font-size="14.00">samples = 9</text>
<text text-anchor="middle" x="419.269" y="-199.8" font-family="Times,serif" font-size="14.00">value = [9, 0]</text>
</g>
<!-- 2&#45;&gt;6 -->
<g id="edge10" class="edge"><title>2&#45;&gt;6</title>
<path fill="none" stroke="black" d="M339.972,-285.992C353.621,-274.461 369.098,-261.385 382.733,-249.866"/>
<polygon fill="black" stroke="black" points="385.14,-252.415 390.52,-243.288 380.622,-247.068 385.14,-252.415"/>
</g>
</g>
</svg>
