<?xml version="1.0" encoding="UTF-8" standalone="no"?>
<!DOCTYPE svg PUBLIC "-//W3C//DTD SVG 1.1//EN"
 "http://www.w3.org/Graphics/SVG/1.1/DTD/svg11.dtd">
<!-- Generated by graphviz version 2.38.0 (20140413.2041)
 -->
<!-- Title: Tree Pages: 1 -->
<svg width="1119pt" height="858pt"
 viewBox="0.00 0.00 1119.04 858.00" xmlns="http://www.w3.org/2000/svg" xmlns:xlink="http://www.w3.org/1999/xlink">
<g id="graph0" class="graph" transform="scale(1 1) rotate(0) translate(4 854)">
<title>Tree</title>
<polygon fill="white" stroke="none" points="-4,4 -4,-854 1115.04,-854 1115.04,4 -4,4"/>
<!-- 0 -->
<g id="node1" class="node"><title>0</title>
<polygon fill="none" stroke="black" points="755.307,-850 636.231,-850 636.231,-786 755.307,-786 755.307,-850"/>
<text text-anchor="middle" x="695.769" y="-834.8" font-family="Times,serif" font-size="14.00">X2 &lt;= 0.448</text>
<text text-anchor="middle" x="695.769" y="-820.8" font-family="Times,serif" font-size="14.00">gini = 0.5</text>
<text text-anchor="middle" x="695.769" y="-806.8" font-family="Times,serif" font-size="14.00">samples = 400</text>
<text text-anchor="middle" x="695.769" y="-792.8" font-family="Times,serif" font-size="14.00">value = [200, 200]</text>
</g>
<!-- 1 -->
<g id="node2" class="node"><title>1</title>
<polygon fill="#e58139" fill-opacity="0.690196" stroke="black" points="625.807,-750 513.73,-750 513.73,-686 625.807,-686 625.807,-750"/>
<text text-anchor="middle" x="569.769" y="-734.8" font-family="Times,serif" font-size="14.00">X1 &lt;= &#45;0.533</text>
<text text-anchor="middle" x="569.769" y="-720.8" font-family="Times,serif" font-size="14.00">gini = 0.36</text>
<text text-anchor="middle" x="569.769" y="-706.8" font-family="Times,serif" font-size="14.00">samples = 242</text>
<text text-anchor="middle" x="569.769" y="-692.8" font-family="Times,serif" font-size="14.00">value = [185, 57]</text>
</g>
<!-- 0&#45;&gt;1 -->
<g id="edge1" class="edge"><title>0&#45;&gt;1</title>
<path fill="none" stroke="black" d="M655.901,-785.992C643.836,-776.608 630.457,-766.202 617.911,-756.444"/>
<polygon fill="black" stroke="black" points="619.851,-753.519 609.809,-750.142 615.554,-759.045 619.851,-753.519"/>
<text text-anchor="middle" x="612.91" y="-770.749" font-family="Times,serif" font-size="14.00">True</text>
</g>
<!-- 22 -->
<g id="node23" class="node"><title>22</title>
<polygon fill="#399de5" fill-opacity="0.894118" stroke="black" points="869.807,-750 757.73,-750 757.73,-686 869.807,-686 869.807,-750"/>
<text text-anchor="middle" x="813.769" y="-734.8" font-family="Times,serif" font-size="14.00">X1 &lt;= 1.321</text>
<text text-anchor="middle" x="813.769" y="-720.8" font-family="Times,serif" font-size="14.00">gini = 0.172</text>
<text text-anchor="middle" x="813.769" y="-706.8" font-family="Times,serif" font-size="14.00">samples = 158</text>
<text text-anchor="middle" x="813.769" y="-692.8" font-family="Times,serif" font-size="14.00">value = [15, 143]</text>
</g>
<!-- 0&#45;&gt;22 -->
<g id="edge22" class="edge"><title>0&#45;&gt;22</title>
<path fill="none" stroke="black" d="M733.104,-785.992C744.296,-776.698 756.695,-766.4 768.347,-756.723"/>
<polygon fill="black" stroke="black" points="770.814,-759.224 776.27,-750.142 766.341,-753.839 770.814,-759.224"/>
<text text-anchor="middle" x="773.966" y="-770.836" font-family="Times,serif" font-size="14.00">False</text>
</g>
<!-- 2 -->
<g id="node3" class="node"><title>2</title>
<polygon fill="#399de5" stroke="black" points="494.807,-643 396.73,-643 396.73,-593 494.807,-593 494.807,-643"/>
<text text-anchor="middle" x="445.769" y="-627.8" font-family="Times,serif" font-size="14.00">gini = 0.0</text>
<text text-anchor="middle" x="445.769" y="-613.8" font-family="Times,serif" font-size="14.00">samples = 25</text>
<text text-anchor="middle" x="445.769" y="-599.8" font-family="Times,serif" font-size="14.00">value = [0, 25]</text>
</g>
<!-- 1&#45;&gt;2 -->
<g id="edge2" class="edge"><title>1&#45;&gt;2</title>
<path fill="none" stroke="black" d="M530.534,-685.992C515.807,-674.353 499.09,-661.141 484.416,-649.544"/>
<polygon fill="black" stroke="black" points="486.516,-646.742 476.5,-643.288 482.175,-652.234 486.516,-646.742"/>
</g>
<!-- 3 -->
<g id="node4" class="node"><title>3</title>
<polygon fill="#e58139" fill-opacity="0.827451" stroke="black" points="625.807,-650 513.73,-650 513.73,-586 625.807,-586 625.807,-650"/>
<text text-anchor="middle" x="569.769" y="-634.8" font-family="Times,serif" font-size="14.00">X2 &lt;= &#45;0.08</text>
<text text-anchor="middle" x="569.769" y="-620.8" font-family="Times,serif" font-size="14.00">gini = 0.251</text>
<text text-anchor="middle" x="569.769" y="-606.8" font-family="Times,serif" font-size="14.00">samples = 217</text>
<text text-anchor="middle" x="569.769" y="-592.8" font-family="Times,serif" font-size="14.00">value = [185, 32]</text>
</g>
<!-- 1&#45;&gt;3 -->
<g id="edge3" class="edge"><title>1&#45;&gt;3</title>
<path fill="none" stroke="black" d="M569.769,-685.992C569.769,-677.859 569.769,-668.959 569.769,-660.378"/>
<polygon fill="black" stroke="black" points="573.269,-660.142 569.769,-650.142 566.269,-660.142 573.269,-660.142"/>
</g>
<!-- 4 -->
<g id="node5" class="node"><title>4</title>
<polygon fill="#e58139" stroke="black" points="499.293,-543 394.244,-543 394.244,-493 499.293,-493 499.293,-543"/>
<text text-anchor="middle" x="446.769" y="-527.8" font-family="Times,serif" font-size="14.00">gini = 0.0</text>
<text text-anchor="middle" x="446.769" y="-513.8" font-family="Times,serif" font-size="14.00">samples = 114</text>
<text text-anchor="middle" x="446.769" y="-499.8" font-family="Times,serif" font-size="14.00">value = [114, 0]</text>
</g>
<!-- 3&#45;&gt;4 -->
<g id="edge4" class="edge"><title>3&#45;&gt;4</title>
<path fill="none" stroke="black" d="M530.851,-585.992C516.242,-574.353 499.66,-561.141 485.104,-549.544"/>
<polygon fill="black" stroke="black" points="487.254,-546.782 477.252,-543.288 482.892,-552.257 487.254,-546.782"/>
</g>
<!-- 5 -->
<g id="node6" class="node"><title>5</title>
<polygon fill="#e58139" fill-opacity="0.549020" stroke="black" points="622.307,-550 517.23,-550 517.23,-486 622.307,-486 622.307,-550"/>
<text text-anchor="middle" x="569.769" y="-534.8" font-family="Times,serif" font-size="14.00">X1 &lt;= 1.486</text>
<text text-anchor="middle" x="569.769" y="-520.8" font-family="Times,serif" font-size="14.00">gini = 0.428</text>
<text text-anchor="middle" x="569.769" y="-506.8" font-family="Times,serif" font-size="14.00">samples = 103</text>
<text text-anchor="middle" x="569.769" y="-492.8" font-family="Times,serif" font-size="14.00">value = [71, 32]</text>
</g>
<!-- 3&#45;&gt;5 -->
<g id="edge5" class="edge"><title>3&#45;&gt;5</title>
<path fill="none" stroke="black" d="M569.769,-585.992C569.769,-577.859 569.769,-568.959 569.769,-560.378"/>
<polygon fill="black" stroke="black" points="573.269,-560.142 569.769,-550.142 566.269,-560.142 573.269,-560.142"/>
</g>
<!-- 6 -->
<g id="node7" class="node"><title>6</title>
<polygon fill="#e58139" fill-opacity="0.109804" stroke="black" points="456.307,-450 351.23,-450 351.23,-386 456.307,-386 456.307,-450"/>
<text text-anchor="middle" x="403.769" y="-434.8" font-family="Times,serif" font-size="14.00">X1 &lt;= 0.566</text>
<text text-anchor="middle" x="403.769" y="-420.8" font-family="Times,serif" font-size="14.00">gini = 0.498</text>
<text text-anchor="middle" x="403.769" y="-406.8" font-family="Times,serif" font-size="14.00">samples = 68</text>
<text text-anchor="middle" x="403.769" y="-392.8" font-family="Times,serif" font-size="14.00">value = [36, 32]</text>
</g>
<!-- 5&#45;&gt;6 -->
<g id="edge6" class="edge"><title>5&#45;&gt;6</title>
<path fill="none" stroke="black" d="M517.245,-485.992C500.744,-476.251 482.377,-465.408 465.31,-455.332"/>
<polygon fill="black" stroke="black" points="466.911,-452.212 456.52,-450.142 463.352,-458.24 466.911,-452.212"/>
</g>
<!-- 21 -->
<g id="node22" class="node"><title>21</title>
<polygon fill="#e58139" stroke="black" points="618.807,-443 520.73,-443 520.73,-393 618.807,-393 618.807,-443"/>
<text text-anchor="middle" x="569.769" y="-427.8" font-family="Times,serif" font-size="14.00">gini = 0.0</text>
<text text-anchor="middle" x="569.769" y="-413.8" font-family="Times,serif" font-size="14.00">samples = 35</text>
<text text-anchor="middle" x="569.769" y="-399.8" font-family="Times,serif" font-size="14.00">value = [35, 0]</text>
</g>
<!-- 5&#45;&gt;21 -->
<g id="edge21" class="edge"><title>5&#45;&gt;21</title>
<path fill="none" stroke="black" d="M569.769,-485.992C569.769,-475.646 569.769,-464.057 569.769,-453.465"/>
<polygon fill="black" stroke="black" points="573.269,-453.288 569.769,-443.288 566.269,-453.288 573.269,-453.288"/>
</g>
<!-- 7 -->
<g id="node8" class="node"><title>7</title>
<polygon fill="#e58139" fill-opacity="0.972549" stroke="black" points="314.807,-350 216.73,-350 216.73,-286 314.807,-286 314.807,-350"/>
<text text-anchor="middle" x="265.769" y="-334.8" font-family="Times,serif" font-size="14.00">X1 &lt;= &#45;0.318</text>
<text text-anchor="middle" x="265.769" y="-320.8" font-family="Times,serif" font-size="14.00">gini = 0.056</text>
<text text-anchor="middle" x="265.769" y="-306.8" font-family="Times,serif" font-size="14.00">samples = 35</text>
<text text-anchor="middle" x="265.769" y="-292.8" font-family="Times,serif" font-size="14.00">value = [34, 1]</text>
</g>
<!-- 6&#45;&gt;7 -->
<g id="edge7" class="edge"><title>6&#45;&gt;7</title>
<path fill="none" stroke="black" d="M360.104,-385.992C346.764,-376.519 331.957,-366.004 318.103,-356.165"/>
<polygon fill="black" stroke="black" points="319.802,-353.079 309.622,-350.142 315.749,-358.786 319.802,-353.079"/>
</g>
<!-- 12 -->
<g id="node13" class="node"><title>12</title>
<polygon fill="#399de5" fill-opacity="0.937255" stroke="black" points="452.807,-350 354.73,-350 354.73,-286 452.807,-286 452.807,-350"/>
<text text-anchor="middle" x="403.769" y="-334.8" font-family="Times,serif" font-size="14.00">X1 &lt;= 0.711</text>
<text text-anchor="middle" x="403.769" y="-320.8" font-family="Times,serif" font-size="14.00">gini = 0.114</text>
<text text-anchor="middle" x="403.769" y="-306.8" font-family="Times,serif" font-size="14.00">samples = 33</text>
<text text-anchor="middle" x="403.769" y="-292.8" font-family="Times,serif" font-size="14.00">value = [2, 31]</text>
</g>
<!-- 6&#45;&gt;12 -->
<g id="edge12" class="edge"><title>6&#45;&gt;12</title>
<path fill="none" stroke="black" d="M403.769,-385.992C403.769,-377.859 403.769,-368.959 403.769,-360.378"/>
<polygon fill="black" stroke="black" points="407.269,-360.142 403.769,-350.142 400.269,-360.142 407.269,-360.142"/>
</g>
<!-- 8 -->
<g id="node9" class="node"><title>8</title>
<polygon fill="none" stroke="black" points="198.307,-250 107.23,-250 107.23,-186 198.307,-186 198.307,-250"/>
<text text-anchor="middle" x="152.769" y="-234.8" font-family="Times,serif" font-size="14.00">X2 &lt;= 0.22</text>
<text text-anchor="middle" x="152.769" y="-220.8" font-family="Times,serif" font-size="14.00">gini = 0.5</text>
<text text-anchor="middle" x="152.769" y="-206.8" font-family="Times,serif" font-size="14.00">samples = 2</text>
<text text-anchor="middle" x="152.769" y="-192.8" font-family="Times,serif" font-size="14.00">value = [1, 1]</text>
</g>
<!-- 7&#45;&gt;8 -->
<g id="edge8" class="edge"><title>7&#45;&gt;8</title>
<path fill="none" stroke="black" d="M230.015,-285.992C219.297,-276.698 207.424,-266.4 196.265,-256.723"/>
<polygon fill="black" stroke="black" points="198.526,-254.05 188.678,-250.142 193.939,-259.338 198.526,-254.05"/>
</g>
<!-- 11 -->
<g id="node12" class="node"><title>11</title>
<polygon fill="#e58139" stroke="black" points="314.807,-243 216.73,-243 216.73,-193 314.807,-193 314.807,-243"/>
<text text-anchor="middle" x="265.769" y="-227.8" font-family="Times,serif" font-size="14.00">gini = 0.0</text>
<text text-anchor="middle" x="265.769" y="-213.8" font-family="Times,serif" font-size="14.00">samples = 33</text>
<text text-anchor="middle" x="265.769" y="-199.8" font-family="Times,serif" font-size="14.00">value = [33, 0]</text>
</g>
<!-- 7&#45;&gt;11 -->
<g id="edge11" class="edge"><title>7&#45;&gt;11</title>
<path fill="none" stroke="black" d="M265.769,-285.992C265.769,-275.646 265.769,-264.057 265.769,-253.465"/>
<polygon fill="black" stroke="black" points="269.269,-253.288 265.769,-243.288 262.269,-253.288 269.269,-253.288"/>
</g>
<!-- 9 -->
<g id="node10" class="node"><title>9</title>
<polygon fill="#399de5" stroke="black" points="91.3068,-143 0.230281,-143 0.230281,-93 91.3068,-93 91.3068,-143"/>
<text text-anchor="middle" x="45.7686" y="-127.8" font-family="Times,serif" font-size="14.00">gini = 0.0</text>
<text text-anchor="middle" x="45.7686" y="-113.8" font-family="Times,serif" font-size="14.00">samples = 1</text>
<text text-anchor="middle" x="45.7686" y="-99.8" font-family="Times,serif" font-size="14.00">value = [0, 1]</text>
</g>
<!-- 8&#45;&gt;9 -->
<g id="edge9" class="edge"><title>8&#45;&gt;9</title>
<path fill="none" stroke="black" d="M118.913,-185.992C106.44,-174.568 92.3131,-161.63 79.8228,-150.19"/>
<polygon fill="black" stroke="black" points="82.0251,-147.461 72.2867,-143.288 77.2972,-152.623 82.0251,-147.461"/>
</g>
<!-- 10 -->
<g id="node11" class="node"><title>10</title>
<polygon fill="#e58139" stroke="black" points="201.307,-143 110.23,-143 110.23,-93 201.307,-93 201.307,-143"/>
<text text-anchor="middle" x="155.769" y="-127.8" font-family="Times,serif" font-size="14.00">gini = 0.0</text>
<text text-anchor="middle" x="155.769" y="-113.8" font-family="Times,serif" font-size="14.00">samples = 1</text>
<text text-anchor="middle" x="155.769" y="-99.8" font-family="Times,serif" font-size="14.00">value = [1, 0]</text>
</g>
<!-- 8&#45;&gt;10 -->
<g id="edge10" class="edge"><title>8&#45;&gt;10</title>
<path fill="none" stroke="black" d="M153.718,-185.992C154.034,-175.646 154.389,-164.057 154.714,-153.465"/>
<polygon fill="black" stroke="black" points="158.217,-153.39 155.025,-143.288 151.221,-153.176 158.217,-153.39"/>
</g>
<!-- 13 -->
<g id="node14" class="node"><title>13</title>
<polygon fill="#399de5" fill-opacity="0.498039" stroke="black" points="424.307,-250 333.23,-250 333.23,-186 424.307,-186 424.307,-250"/>
<text text-anchor="middle" x="378.769" y="-234.8" font-family="Times,serif" font-size="14.00">X1 &lt;= 0.664</text>
<text text-anchor="middle" x="378.769" y="-220.8" font-family="Times,serif" font-size="14.00">gini = 0.444</text>
<text text-anchor="middle" x="378.769" y="-206.8" font-family="Times,serif" font-size="14.00">samples = 3</text>
<text text-anchor="middle" x="378.769" y="-192.8" font-family="Times,serif" font-size="14.00">value = [1, 2]</text>
</g>
<!-- 12&#45;&gt;13 -->
<g id="edge13" class="edge"><title>12&#45;&gt;13</title>
<path fill="none" stroke="black" d="M395.858,-285.992C393.761,-277.77 391.463,-268.763 389.252,-260.095"/>
<polygon fill="black" stroke="black" points="392.576,-258.967 386.713,-250.142 385.794,-260.697 392.576,-258.967"/>
</g>
<!-- 16 -->
<g id="node17" class="node"><title>16</title>
<polygon fill="#399de5" fill-opacity="0.964706" stroke="black" points="540.807,-250 442.73,-250 442.73,-186 540.807,-186 540.807,-250"/>
<text text-anchor="middle" x="491.769" y="-234.8" font-family="Times,serif" font-size="14.00">X1 &lt;= 1.24</text>
<text text-anchor="middle" x="491.769" y="-220.8" font-family="Times,serif" font-size="14.00">gini = 0.064</text>
<text text-anchor="middle" x="491.769" y="-206.8" font-family="Times,serif" font-size="14.00">samples = 30</text>
<text text-anchor="middle" x="491.769" y="-192.8" font-family="Times,serif" font-size="14.00">value = [1, 29]</text>
</g>
<!-- 12&#45;&gt;16 -->
<g id="edge16" class="edge"><title>12&#45;&gt;16</title>
<path fill="none" stroke="black" d="M431.612,-285.992C439.637,-277.055 448.495,-267.191 456.89,-257.842"/>
<polygon fill="black" stroke="black" points="459.727,-259.921 463.804,-250.142 454.518,-255.245 459.727,-259.921"/>
</g>
<!-- 14 -->
<g id="node15" class="node"><title>14</title>
<polygon fill="#399de5" stroke="black" points="314.307,-143 223.23,-143 223.23,-93 314.307,-93 314.307,-143"/>
<text text-anchor="middle" x="268.769" y="-127.8" font-family="Times,serif" font-size="14.00">gini = 0.0</text>
<text text-anchor="middle" x="268.769" y="-113.8" font-family="Times,serif" font-size="14.00">samples = 2</text>
<text text-anchor="middle" x="268.769" y="-99.8" font-family="Times,serif" font-size="14.00">value = [0, 2]</text>
</g>
<!-- 13&#45;&gt;14 -->
<g id="edge14" class="edge"><title>13&#45;&gt;14</title>
<path fill="none" stroke="black" d="M343.964,-185.992C331.141,-174.568 316.618,-161.63 303.778,-150.19"/>
<polygon fill="black" stroke="black" points="305.825,-147.326 296.03,-143.288 301.169,-152.553 305.825,-147.326"/>
</g>
<!-- 15 -->
<g id="node16" class="node"><title>15</title>
<polygon fill="#e58139" stroke="black" points="424.307,-143 333.23,-143 333.23,-93 424.307,-93 424.307,-143"/>
<text text-anchor="middle" x="378.769" y="-127.8" font-family="Times,serif" font-size="14.00">gini = 0.0</text>
<text text-anchor="middle" x="378.769" y="-113.8" font-family="Times,serif" font-size="14.00">samples = 1</text>
<text text-anchor="middle" x="378.769" y="-99.8" font-family="Times,serif" font-size="14.00">value = [1, 0]</text>
</g>
<!-- 13&#45;&gt;15 -->
<g id="edge15" class="edge"><title>13&#45;&gt;15</title>
<path fill="none" stroke="black" d="M378.769,-185.992C378.769,-175.646 378.769,-164.057 378.769,-153.465"/>
<polygon fill="black" stroke="black" points="382.269,-153.288 378.769,-143.288 375.269,-153.288 382.269,-153.288"/>
</g>
<!-- 17 -->
<g id="node18" class="node"><title>17</title>
<polygon fill="#399de5" stroke="black" points="540.807,-143 442.73,-143 442.73,-93 540.807,-93 540.807,-143"/>
<text text-anchor="middle" x="491.769" y="-127.8" font-family="Times,serif" font-size="14.00">gini = 0.0</text>
<text text-anchor="middle" x="491.769" y="-113.8" font-family="Times,serif" font-size="14.00">samples = 26</text>
<text text-anchor="middle" x="491.769" y="-99.8" font-family="Times,serif" font-size="14.00">value = [0, 26]</text>
</g>
<!-- 16&#45;&gt;17 -->
<g id="edge17" class="edge"><title>16&#45;&gt;17</title>
<path fill="none" stroke="black" d="M491.769,-185.992C491.769,-175.646 491.769,-164.057 491.769,-153.465"/>
<polygon fill="black" stroke="black" points="495.269,-153.288 491.769,-143.288 488.269,-153.288 495.269,-153.288"/>
</g>
<!-- 18 -->
<g id="node19" class="node"><title>18</title>
<polygon fill="#399de5" fill-opacity="0.666667" stroke="black" points="650.307,-150 559.23,-150 559.23,-86 650.307,-86 650.307,-150"/>
<text text-anchor="middle" x="604.769" y="-134.8" font-family="Times,serif" font-size="14.00">X1 &lt;= 1.313</text>
<text text-anchor="middle" x="604.769" y="-120.8" font-family="Times,serif" font-size="14.00">gini = 0.375</text>
<text text-anchor="middle" x="604.769" y="-106.8" font-family="Times,serif" font-size="14.00">samples = 4</text>
<text text-anchor="middle" x="604.769" y="-92.8" font-family="Times,serif" font-size="14.00">value = [1, 3]</text>
</g>
<!-- 16&#45;&gt;18 -->
<g id="edge18" class="edge"><title>16&#45;&gt;18</title>
<path fill="none" stroke="black" d="M527.522,-185.992C538.24,-176.698 550.113,-166.4 561.272,-156.723"/>
<polygon fill="black" stroke="black" points="563.598,-159.338 568.859,-150.142 559.012,-154.05 563.598,-159.338"/>
</g>
<!-- 19 -->
<g id="node20" class="node"><title>19</title>
<polygon fill="#e58139" stroke="black" points="567.307,-50 476.23,-50 476.23,-0 567.307,-0 567.307,-50"/>
<text text-anchor="middle" x="521.769" y="-34.8" font-family="Times,serif" font-size="14.00">gini = 0.0</text>
<text text-anchor="middle" x="521.769" y="-20.8" font-family="Times,serif" font-size="14.00">samples = 1</text>
<text text-anchor="middle" x="521.769" y="-6.8" font-family="Times,serif" font-size="14.00">value = [1, 0]</text>
</g>
<!-- 18&#45;&gt;19 -->
<g id="edge19" class="edge"><title>18&#45;&gt;19</title>
<path fill="none" stroke="black" d="M576.437,-85.9375C568.072,-76.7661 558.91,-66.7217 550.519,-57.5217"/>
<polygon fill="black" stroke="black" points="553.011,-55.0599 543.686,-50.0301 547.839,-59.7771 553.011,-55.0599"/>
</g>
<!-- 20 -->
<g id="node21" class="node"><title>20</title>
<polygon fill="#399de5" stroke="black" points="677.307,-50 586.23,-50 586.23,-0 677.307,-0 677.307,-50"/>
<text text-anchor="middle" x="631.769" y="-34.8" font-family="Times,serif" font-size="14.00">gini = 0.0</text>
<text text-anchor="middle" x="631.769" y="-20.8" font-family="Times,serif" font-size="14.00">samples = 3</text>
<text text-anchor="middle" x="631.769" y="-6.8" font-family="Times,serif" font-size="14.00">value = [0, 3]</text>
</g>
<!-- 18&#45;&gt;20 -->
<g id="edge20" class="edge"><title>18&#45;&gt;20</title>
<path fill="none" stroke="black" d="M613.985,-85.9375C616.488,-77.4998 619.211,-68.3232 621.756,-59.7451"/>
<polygon fill="black" stroke="black" points="625.15,-60.6126 624.639,-50.0301 618.439,-58.6214 625.15,-60.6126"/>
</g>
<!-- 23 -->
<g id="node24" class="node"><title>23</title>
<polygon fill="#399de5" fill-opacity="0.956863" stroke="black" points="866.307,-650 761.23,-650 761.23,-586 866.307,-586 866.307,-650"/>
<text text-anchor="middle" x="813.769" y="-634.8" font-family="Times,serif" font-size="14.00">X2 &lt;= 0.632</text>
<text text-anchor="middle" x="813.769" y="-620.8" font-family="Times,serif" font-size="14.00">gini = 0.077</text>
<text text-anchor="middle" x="813.769" y="-606.8" font-family="Times,serif" font-size="14.00">samples = 149</text>
<text text-anchor="middle" x="813.769" y="-592.8" font-family="Times,serif" font-size="14.00">value = [6, 143]</text>
</g>
<!-- 22&#45;&gt;23 -->
<g id="edge23" class="edge"><title>22&#45;&gt;23</title>
<path fill="none" stroke="black" d="M813.769,-685.992C813.769,-677.859 813.769,-668.959 813.769,-660.378"/>
<polygon fill="black" stroke="black" points="817.269,-660.142 813.769,-650.142 810.269,-660.142 817.269,-660.142"/>
</g>
<!-- 44 -->
<g id="node45" class="node"><title>44</title>
<polygon fill="#e58139" stroke="black" points="976.307,-643 885.23,-643 885.23,-593 976.307,-593 976.307,-643"/>
<text text-anchor="middle" x="930.769" y="-627.8" font-family="Times,serif" font-size="14.00">gini = 0.0</text>
<text text-anchor="middle" x="930.769" y="-613.8" font-family="Times,serif" font-size="14.00">samples = 9</text>
<text text-anchor="middle" x="930.769" y="-599.8" font-family="Times,serif" font-size="14.00">value = [9, 0]</text>
</g>
<!-- 22&#45;&gt;44 -->
<g id="edge44" class="edge"><title>22&#45;&gt;44</title>
<path fill="none" stroke="black" d="M850.788,-685.992C864.555,-674.461 880.166,-661.385 893.918,-649.866"/>
<polygon fill="black" stroke="black" points="896.353,-652.392 901.772,-643.288 891.859,-647.026 896.353,-652.392"/>
</g>
<!-- 24 -->
<g id="node25" class="node"><title>24</title>
<polygon fill="#399de5" fill-opacity="0.870588" stroke="black" points="862.807,-550 764.73,-550 764.73,-486 862.807,-486 862.807,-550"/>
<text text-anchor="middle" x="813.769" y="-534.8" font-family="Times,serif" font-size="14.00">X2 &lt;= 0.626</text>
<text text-anchor="middle" x="813.769" y="-520.8" font-family="Times,serif" font-size="14.00">gini = 0.202</text>
<text text-anchor="middle" x="813.769" y="-506.8" font-family="Times,serif" font-size="14.00">samples = 35</text>
<text text-anchor="middle" x="813.769" y="-492.8" font-family="Times,serif" font-size="14.00">value = [4, 31]</text>
</g>
<!-- 23&#45;&gt;24 -->
<g id="edge24" class="edge"><title>23&#45;&gt;24</title>
<path fill="none" stroke="black" d="M813.769,-585.992C813.769,-577.859 813.769,-568.959 813.769,-560.378"/>
<polygon fill="black" stroke="black" points="817.269,-560.142 813.769,-550.142 810.269,-560.142 817.269,-560.142"/>
</g>
<!-- 35 -->
<g id="node36" class="node"><title>35</title>
<polygon fill="#399de5" fill-opacity="0.980392" stroke="black" points="997.293,-550 892.244,-550 892.244,-486 997.293,-486 997.293,-550"/>
<text text-anchor="middle" x="944.769" y="-534.8" font-family="Times,serif" font-size="14.00">X2 &lt;= 0.805</text>
<text text-anchor="middle" x="944.769" y="-520.8" font-family="Times,serif" font-size="14.00">gini = 0.034</text>
<text text-anchor="middle" x="944.769" y="-506.8" font-family="Times,serif" font-size="14.00">samples = 114</text>
<text text-anchor="middle" x="944.769" y="-492.8" font-family="Times,serif" font-size="14.00">value = [2, 112]</text>
</g>
<!-- 23&#45;&gt;35 -->
<g id="edge35" class="edge"><title>23&#45;&gt;35</title>
<path fill="none" stroke="black" d="M855.218,-585.992C867.881,-576.519 881.937,-566.004 895.088,-556.165"/>
<polygon fill="black" stroke="black" points="897.229,-558.935 903.139,-550.142 893.035,-553.33 897.229,-558.935"/>
</g>
<!-- 25 -->
<g id="node26" class="node"><title>25</title>
<polygon fill="#399de5" fill-opacity="0.901961" stroke="black" points="758.807,-450 660.73,-450 660.73,-386 758.807,-386 758.807,-450"/>
<text text-anchor="middle" x="709.769" y="-434.8" font-family="Times,serif" font-size="14.00">X1 &lt;= &#45;0.34</text>
<text text-anchor="middle" x="709.769" y="-420.8" font-family="Times,serif" font-size="14.00">gini = 0.161</text>
<text text-anchor="middle" x="709.769" y="-406.8" font-family="Times,serif" font-size="14.00">samples = 34</text>
<text text-anchor="middle" x="709.769" y="-392.8" font-family="Times,serif" font-size="14.00">value = [3, 31]</text>
</g>
<!-- 24&#45;&gt;25 -->
<g id="edge25" class="edge"><title>24&#45;&gt;25</title>
<path fill="none" stroke="black" d="M780.862,-485.992C771.093,-476.787 760.281,-466.598 750.097,-457.002"/>
<polygon fill="black" stroke="black" points="752.496,-454.453 742.818,-450.142 747.695,-459.548 752.496,-454.453"/>
</g>
<!-- 34 -->
<g id="node35" class="node"><title>34</title>
<polygon fill="#e58139" stroke="black" points="868.307,-443 777.23,-443 777.23,-393 868.307,-393 868.307,-443"/>
<text text-anchor="middle" x="822.769" y="-427.8" font-family="Times,serif" font-size="14.00">gini = 0.0</text>
<text text-anchor="middle" x="822.769" y="-413.8" font-family="Times,serif" font-size="14.00">samples = 1</text>
<text text-anchor="middle" x="822.769" y="-399.8" font-family="Times,serif" font-size="14.00">value = [1, 0]</text>
</g>
<!-- 24&#45;&gt;34 -->
<g id="edge34" class="edge"><title>24&#45;&gt;34</title>
<path fill="none" stroke="black" d="M816.616,-485.992C817.566,-475.646 818.631,-464.057 819.603,-453.465"/>
<polygon fill="black" stroke="black" points="823.109,-453.566 820.538,-443.288 816.138,-452.926 823.109,-453.566"/>
</g>
<!-- 26 -->
<g id="node27" class="node"><title>26</title>
<polygon fill="#399de5" stroke="black" points="702.807,-343 604.73,-343 604.73,-293 702.807,-293 702.807,-343"/>
<text text-anchor="middle" x="653.769" y="-327.8" font-family="Times,serif" font-size="14.00">gini = 0.0</text>
<text text-anchor="middle" x="653.769" y="-313.8" font-family="Times,serif" font-size="14.00">samples = 14</text>
<text text-anchor="middle" x="653.769" y="-299.8" font-family="Times,serif" font-size="14.00">value = [0, 14]</text>
</g>
<!-- 25&#45;&gt;26 -->
<g id="edge26" class="edge"><title>25&#45;&gt;26</title>
<path fill="none" stroke="black" d="M692.05,-385.992C685.891,-375.215 678.963,-363.09 672.709,-352.146"/>
<polygon fill="black" stroke="black" points="675.648,-350.234 667.647,-343.288 669.57,-353.707 675.648,-350.234"/>
</g>
<!-- 27 -->
<g id="node28" class="node"><title>27</title>
<polygon fill="#399de5" fill-opacity="0.823529" stroke="black" points="819.807,-350 721.73,-350 721.73,-286 819.807,-286 819.807,-350"/>
<text text-anchor="middle" x="770.769" y="-334.8" font-family="Times,serif" font-size="14.00">X1 &lt;= 0.269</text>
<text text-anchor="middle" x="770.769" y="-320.8" font-family="Times,serif" font-size="14.00">gini = 0.255</text>
<text text-anchor="middle" x="770.769" y="-306.8" font-family="Times,serif" font-size="14.00">samples = 20</text>
<text text-anchor="middle" x="770.769" y="-292.8" font-family="Times,serif" font-size="14.00">value = [3, 17]</text>
</g>
<!-- 25&#45;&gt;27 -->
<g id="edge27" class="edge"><title>25&#45;&gt;27</title>
<path fill="none" stroke="black" d="M729.069,-385.992C734.465,-377.323 740.404,-367.782 746.067,-358.685"/>
<polygon fill="black" stroke="black" points="749.071,-360.482 751.384,-350.142 743.128,-356.783 749.071,-360.482"/>
</g>
<!-- 28 -->
<g id="node29" class="node"><title>28</title>
<polygon fill="none" stroke="black" points="760.307,-250 669.23,-250 669.23,-186 760.307,-186 760.307,-250"/>
<text text-anchor="middle" x="714.769" y="-234.8" font-family="Times,serif" font-size="14.00">X2 &lt;= 0.525</text>
<text text-anchor="middle" x="714.769" y="-220.8" font-family="Times,serif" font-size="14.00">gini = 0.5</text>
<text text-anchor="middle" x="714.769" y="-206.8" font-family="Times,serif" font-size="14.00">samples = 6</text>
<text text-anchor="middle" x="714.769" y="-192.8" font-family="Times,serif" font-size="14.00">value = [3, 3]</text>
</g>
<!-- 27&#45;&gt;28 -->
<g id="edge28" class="edge"><title>27&#45;&gt;28</title>
<path fill="none" stroke="black" d="M753.05,-285.992C748.147,-277.413 742.756,-267.978 737.606,-258.966"/>
<polygon fill="black" stroke="black" points="740.565,-257.088 732.564,-250.142 734.487,-260.561 740.565,-257.088"/>
</g>
<!-- 33 -->
<g id="node34" class="node"><title>33</title>
<polygon fill="#399de5" stroke="black" points="876.807,-243 778.73,-243 778.73,-193 876.807,-193 876.807,-243"/>
<text text-anchor="middle" x="827.769" y="-227.8" font-family="Times,serif" font-size="14.00">gini = 0.0</text>
<text text-anchor="middle" x="827.769" y="-213.8" font-family="Times,serif" font-size="14.00">samples = 14</text>
<text text-anchor="middle" x="827.769" y="-199.8" font-family="Times,serif" font-size="14.00">value = [0, 14]</text>
</g>
<!-- 27&#45;&gt;33 -->
<g id="edge33" class="edge"><title>27&#45;&gt;33</title>
<path fill="none" stroke="black" d="M788.804,-285.992C795.072,-275.215 802.125,-263.09 808.49,-252.146"/>
<polygon fill="black" stroke="black" points="811.64,-253.692 813.642,-243.288 805.589,-250.172 811.64,-253.692"/>
</g>
<!-- 29 -->
<g id="node30" class="node"><title>29</title>
<polygon fill="#e58139" stroke="black" points="760.307,-143 669.23,-143 669.23,-93 760.307,-93 760.307,-143"/>
<text text-anchor="middle" x="714.769" y="-127.8" font-family="Times,serif" font-size="14.00">gini = 0.0</text>
<text text-anchor="middle" x="714.769" y="-113.8" font-family="Times,serif" font-size="14.00">samples = 2</text>
<text text-anchor="middle" x="714.769" y="-99.8" font-family="Times,serif" font-size="14.00">value = [2, 0]</text>
</g>
<!-- 28&#45;&gt;29 -->
<g id="edge29" class="edge"><title>28&#45;&gt;29</title>
<path fill="none" stroke="black" d="M714.769,-185.992C714.769,-175.646 714.769,-164.057 714.769,-153.465"/>
<polygon fill="black" stroke="black" points="718.269,-153.288 714.769,-143.288 711.269,-153.288 718.269,-153.288"/>
</g>
<!-- 30 -->
<g id="node31" class="node"><title>30</title>
<polygon fill="#399de5" fill-opacity="0.666667" stroke="black" points="870.832,-150 778.705,-150 778.705,-86 870.832,-86 870.832,-150"/>
<text text-anchor="middle" x="824.769" y="-134.8" font-family="Times,serif" font-size="14.00">X1 &lt;= &#45;0.206</text>
<text text-anchor="middle" x="824.769" y="-120.8" font-family="Times,serif" font-size="14.00">gini = 0.375</text>
<text text-anchor="middle" x="824.769" y="-106.8" font-family="Times,serif" font-size="14.00">samples = 4</text>
<text text-anchor="middle" x="824.769" y="-92.8" font-family="Times,serif" font-size="14.00">value = [1, 3]</text>
</g>
<!-- 28&#45;&gt;30 -->
<g id="edge30" class="edge"><title>28&#45;&gt;30</title>
<path fill="none" stroke="black" d="M749.573,-185.992C759.906,-176.787 771.342,-166.598 782.113,-157.002"/>
<polygon fill="black" stroke="black" points="784.674,-159.408 789.813,-150.142 780.018,-154.181 784.674,-159.408"/>
</g>
<!-- 31 -->
<g id="node32" class="node"><title>31</title>
<polygon fill="#e58139" stroke="black" points="842.307,-50 751.23,-50 751.23,-0 842.307,-0 842.307,-50"/>
<text text-anchor="middle" x="796.769" y="-34.8" font-family="Times,serif" font-size="14.00">gini = 0.0</text>
<text text-anchor="middle" x="796.769" y="-20.8" font-family="Times,serif" font-size="14.00">samples = 1</text>
<text text-anchor="middle" x="796.769" y="-6.8" font-family="Times,serif" font-size="14.00">value = [1, 0]</text>
</g>
<!-- 30&#45;&gt;31 -->
<g id="edge31" class="edge"><title>30&#45;&gt;31</title>
<path fill="none" stroke="black" d="M815.211,-85.9375C812.615,-77.4998 809.791,-68.3232 807.152,-59.7451"/>
<polygon fill="black" stroke="black" points="810.449,-58.5585 804.162,-50.0301 803.758,-60.6172 810.449,-58.5585"/>
</g>
<!-- 32 -->
<g id="node33" class="node"><title>32</title>
<polygon fill="#399de5" stroke="black" points="952.307,-50 861.23,-50 861.23,-0 952.307,-0 952.307,-50"/>
<text text-anchor="middle" x="906.769" y="-34.8" font-family="Times,serif" font-size="14.00">gini = 0.0</text>
<text text-anchor="middle" x="906.769" y="-20.8" font-family="Times,serif" font-size="14.00">samples = 3</text>
<text text-anchor="middle" x="906.769" y="-6.8" font-family="Times,serif" font-size="14.00">value = [0, 3]</text>
</g>
<!-- 30&#45;&gt;32 -->
<g id="edge32" class="edge"><title>30&#45;&gt;32</title>
<path fill="none" stroke="black" d="M852.759,-85.9375C861.023,-76.7661 870.074,-66.7217 878.364,-57.5217"/>
<polygon fill="black" stroke="black" points="881.021,-59.8019 885.115,-50.0301 875.821,-55.116 881.021,-59.8019"/>
</g>
<!-- 36 -->
<g id="node37" class="node"><title>36</title>
<polygon fill="#399de5" fill-opacity="0.949020" stroke="black" points="993.807,-450 895.73,-450 895.73,-386 993.807,-386 993.807,-450"/>
<text text-anchor="middle" x="944.769" y="-434.8" font-family="Times,serif" font-size="14.00">X2 &lt;= 0.801</text>
<text text-anchor="middle" x="944.769" y="-420.8" font-family="Times,serif" font-size="14.00">gini = 0.093</text>
<text text-anchor="middle" x="944.769" y="-406.8" font-family="Times,serif" font-size="14.00">samples = 41</text>
<text text-anchor="middle" x="944.769" y="-392.8" font-family="Times,serif" font-size="14.00">value = [2, 39]</text>
</g>
<!-- 35&#45;&gt;36 -->
<g id="edge36" class="edge"><title>35&#45;&gt;36</title>
<path fill="none" stroke="black" d="M944.769,-485.992C944.769,-477.859 944.769,-468.959 944.769,-460.378"/>
<polygon fill="black" stroke="black" points="948.269,-460.142 944.769,-450.142 941.269,-460.142 948.269,-460.142"/>
</g>
<!-- 43 -->
<g id="node44" class="node"><title>43</title>
<polygon fill="#399de5" stroke="black" points="1110.81,-443 1012.73,-443 1012.73,-393 1110.81,-393 1110.81,-443"/>
<text text-anchor="middle" x="1061.77" y="-427.8" font-family="Times,serif" font-size="14.00">gini = 0.0</text>
<text text-anchor="middle" x="1061.77" y="-413.8" font-family="Times,serif" font-size="14.00">samples = 73</text>
<text text-anchor="middle" x="1061.77" y="-399.8" font-family="Times,serif" font-size="14.00">value = [0, 73]</text>
</g>
<!-- 35&#45;&gt;43 -->
<g id="edge43" class="edge"><title>35&#45;&gt;43</title>
<path fill="none" stroke="black" d="M981.788,-485.992C995.555,-474.461 1011.17,-461.385 1024.92,-449.866"/>
<polygon fill="black" stroke="black" points="1027.35,-452.392 1032.77,-443.288 1022.86,-447.026 1027.35,-452.392"/>
</g>
<!-- 37 -->
<g id="node38" class="node"><title>37</title>
<polygon fill="#399de5" fill-opacity="0.972549" stroke="black" points="993.807,-350 895.73,-350 895.73,-286 993.807,-286 993.807,-350"/>
<text text-anchor="middle" x="944.769" y="-334.8" font-family="Times,serif" font-size="14.00">X1 &lt;= 0.167</text>
<text text-anchor="middle" x="944.769" y="-320.8" font-family="Times,serif" font-size="14.00">gini = 0.049</text>
<text text-anchor="middle" x="944.769" y="-306.8" font-family="Times,serif" font-size="14.00">samples = 40</text>
<text text-anchor="middle" x="944.769" y="-292.8" font-family="Times,serif" font-size="14.00">value = [1, 39]</text>
</g>
<!-- 36&#45;&gt;37 -->
<g id="edge37" class="edge"><title>36&#45;&gt;37</title>
<path fill="none" stroke="black" d="M944.769,-385.992C944.769,-377.859 944.769,-368.959 944.769,-360.378"/>
<polygon fill="black" stroke="black" points="948.269,-360.142 944.769,-350.142 941.269,-360.142 948.269,-360.142"/>
</g>
<!-- 42 -->
<g id="node43" class="node"><title>42</title>
<polygon fill="#e58139" stroke="black" points="1103.31,-343 1012.23,-343 1012.23,-293 1103.31,-293 1103.31,-343"/>
<text text-anchor="middle" x="1057.77" y="-327.8" font-family="Times,serif" font-size="14.00">gini = 0.0</text>
<text text-anchor="middle" x="1057.77" y="-313.8" font-family="Times,serif" font-size="14.00">samples = 1</text>
<text text-anchor="middle" x="1057.77" y="-299.8" font-family="Times,serif" font-size="14.00">value = [1, 0]</text>
</g>
<!-- 36&#45;&gt;42 -->
<g id="edge42" class="edge"><title>36&#45;&gt;42</title>
<path fill="none" stroke="black" d="M980.522,-385.992C993.819,-374.461 1008.9,-361.385 1022.18,-349.866"/>
<polygon fill="black" stroke="black" points="1024.5,-352.484 1029.76,-343.288 1019.92,-347.195 1024.5,-352.484"/>
</g>
<!-- 38 -->
<g id="node39" class="node"><title>38</title>
<polygon fill="#399de5" fill-opacity="0.949020" stroke="black" points="993.807,-250 895.73,-250 895.73,-186 993.807,-186 993.807,-250"/>
<text text-anchor="middle" x="944.769" y="-234.8" font-family="Times,serif" font-size="14.00">X1 &lt;= 0.061</text>
<text text-anchor="middle" x="944.769" y="-220.8" font-family="Times,serif" font-size="14.00">gini = 0.095</text>
<text text-anchor="middle" x="944.769" y="-206.8" font-family="Times,serif" font-size="14.00">samples = 20</text>
<text text-anchor="middle" x="944.769" y="-192.8" font-family="Times,serif" font-size="14.00">value = [1, 19]</text>
</g>
<!-- 37&#45;&gt;38 -->
<g id="edge38" class="edge"><title>37&#45;&gt;38</title>
<path fill="none" stroke="black" d="M944.769,-285.992C944.769,-277.859 944.769,-268.959 944.769,-260.378"/>
<polygon fill="black" stroke="black" points="948.269,-260.142 944.769,-250.142 941.269,-260.142 948.269,-260.142"/>
</g>
<!-- 41 -->
<g id="node42" class="node"><title>41</title>
<polygon fill="#399de5" stroke="black" points="1110.81,-243 1012.73,-243 1012.73,-193 1110.81,-193 1110.81,-243"/>
<text text-anchor="middle" x="1061.77" y="-227.8" font-family="Times,serif" font-size="14.00">gini = 0.0</text>
<text text-anchor="middle" x="1061.77" y="-213.8" font-family="Times,serif" font-size="14.00">samples = 20</text>
<text text-anchor="middle" x="1061.77" y="-199.8" font-family="Times,serif" font-size="14.00">value = [0, 20]</text>
</g>
<!-- 37&#45;&gt;41 -->
<g id="edge41" class="edge"><title>37&#45;&gt;41</title>
<path fill="none" stroke="black" d="M981.788,-285.992C995.555,-274.461 1011.17,-261.385 1024.92,-249.866"/>
<polygon fill="black" stroke="black" points="1027.35,-252.392 1032.77,-243.288 1022.86,-247.026 1027.35,-252.392"/>
</g>
<!-- 39 -->
<g id="node40" class="node"><title>39</title>
<polygon fill="#399de5" stroke="black" points="990.807,-143 892.73,-143 892.73,-93 990.807,-93 990.807,-143"/>
<text text-anchor="middle" x="941.769" y="-127.8" font-family="Times,serif" font-size="14.00">gini = 0.0</text>
<text text-anchor="middle" x="941.769" y="-113.8" font-family="Times,serif" font-size="14.00">samples = 19</text>
<text text-anchor="middle" x="941.769" y="-99.8" font-family="Times,serif" font-size="14.00">value = [0, 19]</text>
</g>
<!-- 38&#45;&gt;39 -->
<g id="edge39" class="edge"><title>38&#45;&gt;39</title>
<path fill="none" stroke="black" d="M943.819,-185.992C943.503,-175.646 943.148,-164.057 942.824,-153.465"/>
<polygon fill="black" stroke="black" points="946.316,-153.176 942.512,-143.288 939.32,-153.39 946.316,-153.176"/>
</g>
<!-- 40 -->
<g id="node41" class="node"><title>40</title>
<polygon fill="#e58139" stroke="black" points="1100.31,-143 1009.23,-143 1009.23,-93 1100.31,-93 1100.31,-143"/>
<text text-anchor="middle" x="1054.77" y="-127.8" font-family="Times,serif" font-size="14.00">gini = 0.0</text>
<text text-anchor="middle" x="1054.77" y="-113.8" font-family="Times,serif" font-size="14.00">samples = 1</text>
<text text-anchor="middle" x="1054.77" y="-99.8" font-family="Times,serif" font-size="14.00">value = [1, 0]</text>
</g>
<!-- 38&#45;&gt;40 -->
<g id="edge40" class="edge"><title>38&#45;&gt;40</title>
<path fill="none" stroke="black" d="M979.573,-185.992C992.396,-174.568 1006.92,-161.63 1019.76,-150.19"/>
<polygon fill="black" stroke="black" points="1022.37,-152.553 1027.51,-143.288 1017.71,-147.326 1022.37,-152.553"/>
</g>
</g>
</svg>
