<?xml version="1.0" encoding="UTF-8" standalone="no"?>
<!DOCTYPE svg PUBLIC "-//W3C//DTD SVG 1.1//EN"
 "http://www.w3.org/Graphics/SVG/1.1/DTD/svg11.dtd">
<!-- Generated by graphviz version 2.38.0 (20140413.2041)
 -->
<!-- Title: Tree Pages: 1 -->
<svg width="911pt" height="758pt"
 viewBox="0.00 0.00 911.04 758.00" xmlns="http://www.w3.org/2000/svg" xmlns:xlink="http://www.w3.org/1999/xlink">
<g id="graph0" class="graph" transform="scale(1 1) rotate(0) translate(4 754)">
<title>Tree</title>
<polygon fill="white" stroke="none" points="-4,4 -4,-754 907.037,-754 907.037,4 -4,4"/>
<!-- 0 -->
<g id="node1" class="node"><title>0</title>
<polygon fill="none" stroke="black" points="541.307,-750 422.231,-750 422.231,-686 541.307,-686 541.307,-750"/>
<text text-anchor="middle" x="481.769" y="-734.8" font-family="Times,serif" font-size="14.00">X2 &lt;= 0.448</text>
<text text-anchor="middle" x="481.769" y="-720.8" font-family="Times,serif" font-size="14.00">gini = 0.5</text>
<text text-anchor="middle" x="481.769" y="-706.8" font-family="Times,serif" font-size="14.00">samples = 400</text>
<text text-anchor="middle" x="481.769" y="-692.8" font-family="Times,serif" font-size="14.00">value = [200, 200]</text>
</g>
<!-- 1 -->
<g id="node2" class="node"><title>1</title>
<polygon fill="#e58139" fill-opacity="0.690196" stroke="black" points="449.807,-650 337.73,-650 337.73,-586 449.807,-586 449.807,-650"/>
<text text-anchor="middle" x="393.769" y="-634.8" font-family="Times,serif" font-size="14.00">X1 &lt;= &#45;0.533</text>
<text text-anchor="middle" x="393.769" y="-620.8" font-family="Times,serif" font-size="14.00">gini = 0.36</text>
<text text-anchor="middle" x="393.769" y="-606.8" font-family="Times,serif" font-size="14.00">samples = 242</text>
<text text-anchor="middle" x="393.769" y="-592.8" font-family="Times,serif" font-size="14.00">value = [185, 57]</text>
</g>
<!-- 0&#45;&gt;1 -->
<g id="edge1" class="edge"><title>0&#45;&gt;1</title>
<path fill="none" stroke="black" d="M453.925,-685.992C445.9,-677.055 437.042,-667.191 428.647,-657.842"/>
<polygon fill="black" stroke="black" points="431.019,-655.245 421.733,-650.142 425.81,-659.921 431.019,-655.245"/>
<text text-anchor="middle" x="420.391" y="-670.906" font-family="Times,serif" font-size="14.00">True</text>
</g>
<!-- 16 -->
<g id="node17" class="node"><title>16</title>
<polygon fill="#399de5" fill-opacity="0.894118" stroke="black" points="626.807,-650 514.73,-650 514.73,-586 626.807,-586 626.807,-650"/>
<text text-anchor="middle" x="570.769" y="-634.8" font-family="Times,serif" font-size="14.00">X1 &lt;= 1.321</text>
<text text-anchor="middle" x="570.769" y="-620.8" font-family="Times,serif" font-size="14.00">gini = 0.172</text>
<text text-anchor="middle" x="570.769" y="-606.8" font-family="Times,serif" font-size="14.00">samples = 158</text>
<text text-anchor="middle" x="570.769" y="-592.8" font-family="Times,serif" font-size="14.00">value = [15, 143]</text>
</g>
<!-- 0&#45;&gt;16 -->
<g id="edge16" class="edge"><title>0&#45;&gt;16</title>
<path fill="none" stroke="black" d="M509.929,-685.992C518.126,-676.966 527.183,-666.993 535.748,-657.562"/>
<polygon fill="black" stroke="black" points="538.354,-659.898 542.486,-650.142 533.172,-655.192 538.354,-659.898"/>
<text text-anchor="middle" x="543.688" y="-670.914" font-family="Times,serif" font-size="14.00">False</text>
</g>
<!-- 2 -->
<g id="node3" class="node"><title>2</title>
<polygon fill="#399de5" stroke="black" points="318.807,-543 220.73,-543 220.73,-493 318.807,-493 318.807,-543"/>
<text text-anchor="middle" x="269.769" y="-527.8" font-family="Times,serif" font-size="14.00">gini = 0.0</text>
<text text-anchor="middle" x="269.769" y="-513.8" font-family="Times,serif" font-size="14.00">samples = 25</text>
<text text-anchor="middle" x="269.769" y="-499.8" font-family="Times,serif" font-size="14.00">value = [0, 25]</text>
</g>
<!-- 1&#45;&gt;2 -->
<g id="edge2" class="edge"><title>1&#45;&gt;2</title>
<path fill="none" stroke="black" d="M354.534,-585.992C339.807,-574.353 323.09,-561.141 308.416,-549.544"/>
<polygon fill="black" stroke="black" points="310.516,-546.742 300.5,-543.288 306.175,-552.234 310.516,-546.742"/>
</g>
<!-- 3 -->
<g id="node4" class="node"><title>3</title>
<polygon fill="#e58139" fill-opacity="0.827451" stroke="black" points="449.807,-550 337.73,-550 337.73,-486 449.807,-486 449.807,-550"/>
<text text-anchor="middle" x="393.769" y="-534.8" font-family="Times,serif" font-size="14.00">X2 &lt;= &#45;0.08</text>
<text text-anchor="middle" x="393.769" y="-520.8" font-family="Times,serif" font-size="14.00">gini = 0.251</text>
<text text-anchor="middle" x="393.769" y="-506.8" font-family="Times,serif" font-size="14.00">samples = 217</text>
<text text-anchor="middle" x="393.769" y="-492.8" font-family="Times,serif" font-size="14.00">value = [185, 32]</text>
</g>
<!-- 1&#45;&gt;3 -->
<g id="edge3" class="edge"><title>1&#45;&gt;3</title>
<path fill="none" stroke="black" d="M393.769,-585.992C393.769,-577.859 393.769,-568.959 393.769,-560.378"/>
<polygon fill="black" stroke="black" points="397.269,-560.142 393.769,-550.142 390.269,-560.142 397.269,-560.142"/>
</g>
<!-- 4 -->
<g id="node5" class="node"><title>4</title>
<polygon fill="#e58139" stroke="black" points="323.293,-443 218.244,-443 218.244,-393 323.293,-393 323.293,-443"/>
<text text-anchor="middle" x="270.769" y="-427.8" font-family="Times,serif" font-size="14.00">gini = 0.0</text>
<text text-anchor="middle" x="270.769" y="-413.8" font-family="Times,serif" font-size="14.00">samples = 114</text>
<text text-anchor="middle" x="270.769" y="-399.8" font-family="Times,serif" font-size="14.00">value = [114, 0]</text>
</g>
<!-- 3&#45;&gt;4 -->
<g id="edge4" class="edge"><title>3&#45;&gt;4</title>
<path fill="none" stroke="black" d="M354.851,-485.992C340.242,-474.353 323.66,-461.141 309.104,-449.544"/>
<polygon fill="black" stroke="black" points="311.254,-446.782 301.252,-443.288 306.892,-452.257 311.254,-446.782"/>
</g>
<!-- 5 -->
<g id="node6" class="node"><title>5</title>
<polygon fill="#e58139" fill-opacity="0.549020" stroke="black" points="446.307,-450 341.23,-450 341.23,-386 446.307,-386 446.307,-450"/>
<text text-anchor="middle" x="393.769" y="-434.8" font-family="Times,serif" font-size="14.00">X1 &lt;= 1.486</text>
<text text-anchor="middle" x="393.769" y="-420.8" font-family="Times,serif" font-size="14.00">gini = 0.428</text>
<text text-anchor="middle" x="393.769" y="-406.8" font-family="Times,serif" font-size="14.00">samples = 103</text>
<text text-anchor="middle" x="393.769" y="-392.8" font-family="Times,serif" font-size="14.00">value = [71, 32]</text>
</g>
<!-- 3&#45;&gt;5 -->
<g id="edge5" class="edge"><title>3&#45;&gt;5</title>
<path fill="none" stroke="black" d="M393.769,-485.992C393.769,-477.859 393.769,-468.959 393.769,-460.378"/>
<polygon fill="black" stroke="black" points="397.269,-460.142 393.769,-450.142 390.269,-460.142 397.269,-460.142"/>
</g>
<!-- 6 -->
<g id="node7" class="node"><title>6</title>
<polygon fill="#e58139" fill-opacity="0.109804" stroke="black" points="326.307,-350 221.23,-350 221.23,-286 326.307,-286 326.307,-350"/>
<text text-anchor="middle" x="273.769" y="-334.8" font-family="Times,serif" font-size="14.00">X1 &lt;= 0.566</text>
<text text-anchor="middle" x="273.769" y="-320.8" font-family="Times,serif" font-size="14.00">gini = 0.498</text>
<text text-anchor="middle" x="273.769" y="-306.8" font-family="Times,serif" font-size="14.00">samples = 68</text>
<text text-anchor="middle" x="273.769" y="-292.8" font-family="Times,serif" font-size="14.00">value = [36, 32]</text>
</g>
<!-- 5&#45;&gt;6 -->
<g id="edge6" class="edge"><title>5&#45;&gt;6</title>
<path fill="none" stroke="black" d="M355.8,-385.992C344.419,-376.698 331.809,-366.4 319.96,-356.723"/>
<polygon fill="black" stroke="black" points="321.861,-353.757 311.902,-350.142 317.434,-359.179 321.861,-353.757"/>
</g>
<!-- 15 -->
<g id="node16" class="node"><title>15</title>
<polygon fill="#e58139" stroke="black" points="442.807,-343 344.73,-343 344.73,-293 442.807,-293 442.807,-343"/>
<text text-anchor="middle" x="393.769" y="-327.8" font-family="Times,serif" font-size="14.00">gini = 0.0</text>
<text text-anchor="middle" x="393.769" y="-313.8" font-family="Times,serif" font-size="14.00">samples = 35</text>
<text text-anchor="middle" x="393.769" y="-299.8" font-family="Times,serif" font-size="14.00">value = [35, 0]</text>
</g>
<!-- 5&#45;&gt;15 -->
<g id="edge15" class="edge"><title>5&#45;&gt;15</title>
<path fill="none" stroke="black" d="M393.769,-385.992C393.769,-375.646 393.769,-364.057 393.769,-353.465"/>
<polygon fill="black" stroke="black" points="397.269,-353.288 393.769,-343.288 390.269,-353.288 397.269,-353.288"/>
</g>
<!-- 7 -->
<g id="node8" class="node"><title>7</title>
<polygon fill="#e58139" fill-opacity="0.972549" stroke="black" points="206.807,-250 108.73,-250 108.73,-186 206.807,-186 206.807,-250"/>
<text text-anchor="middle" x="157.769" y="-234.8" font-family="Times,serif" font-size="14.00">X1 &lt;= &#45;0.318</text>
<text text-anchor="middle" x="157.769" y="-220.8" font-family="Times,serif" font-size="14.00">gini = 0.056</text>
<text text-anchor="middle" x="157.769" y="-206.8" font-family="Times,serif" font-size="14.00">samples = 35</text>
<text text-anchor="middle" x="157.769" y="-192.8" font-family="Times,serif" font-size="14.00">value = [34, 1]</text>
</g>
<!-- 6&#45;&gt;7 -->
<g id="edge7" class="edge"><title>6&#45;&gt;7</title>
<path fill="none" stroke="black" d="M237.065,-285.992C226.064,-276.698 213.875,-266.4 202.42,-256.723"/>
<polygon fill="black" stroke="black" points="204.529,-253.922 194.631,-250.142 200.011,-259.27 204.529,-253.922"/>
</g>
<!-- 10 -->
<g id="node11" class="node"><title>10</title>
<polygon fill="#399de5" fill-opacity="0.937255" stroke="black" points="323.807,-250 225.73,-250 225.73,-186 323.807,-186 323.807,-250"/>
<text text-anchor="middle" x="274.769" y="-234.8" font-family="Times,serif" font-size="14.00">X1 &lt;= 0.711</text>
<text text-anchor="middle" x="274.769" y="-220.8" font-family="Times,serif" font-size="14.00">gini = 0.114</text>
<text text-anchor="middle" x="274.769" y="-206.8" font-family="Times,serif" font-size="14.00">samples = 33</text>
<text text-anchor="middle" x="274.769" y="-192.8" font-family="Times,serif" font-size="14.00">value = [2, 31]</text>
</g>
<!-- 6&#45;&gt;10 -->
<g id="edge10" class="edge"><title>6&#45;&gt;10</title>
<path fill="none" stroke="black" d="M274.085,-285.992C274.168,-277.859 274.259,-268.959 274.346,-260.378"/>
<polygon fill="black" stroke="black" points="277.848,-260.178 274.451,-250.142 270.849,-260.106 277.848,-260.178"/>
</g>
<!-- 8 -->
<g id="node9" class="node"><title>8</title>
<polygon fill="none" stroke="black" points="91.3068,-143 0.230281,-143 0.230281,-93 91.3068,-93 91.3068,-143"/>
<text text-anchor="middle" x="45.7686" y="-127.8" font-family="Times,serif" font-size="14.00">gini = 0.5</text>
<text text-anchor="middle" x="45.7686" y="-113.8" font-family="Times,serif" font-size="14.00">samples = 2</text>
<text text-anchor="middle" x="45.7686" y="-99.8" font-family="Times,serif" font-size="14.00">value = [1, 1]</text>
</g>
<!-- 7&#45;&gt;8 -->
<g id="edge8" class="edge"><title>7&#45;&gt;8</title>
<path fill="none" stroke="black" d="M122.331,-185.992C109.275,-174.568 94.4881,-161.63 81.4141,-150.19"/>
<polygon fill="black" stroke="black" points="83.3564,-147.239 73.5259,-143.288 78.7469,-152.507 83.3564,-147.239"/>
</g>
<!-- 9 -->
<g id="node10" class="node"><title>9</title>
<polygon fill="#e58139" stroke="black" points="207.807,-143 109.73,-143 109.73,-93 207.807,-93 207.807,-143"/>
<text text-anchor="middle" x="158.769" y="-127.8" font-family="Times,serif" font-size="14.00">gini = 0.0</text>
<text text-anchor="middle" x="158.769" y="-113.8" font-family="Times,serif" font-size="14.00">samples = 33</text>
<text text-anchor="middle" x="158.769" y="-99.8" font-family="Times,serif" font-size="14.00">value = [33, 0]</text>
</g>
<!-- 7&#45;&gt;9 -->
<g id="edge9" class="edge"><title>7&#45;&gt;9</title>
<path fill="none" stroke="black" d="M158.085,-185.992C158.191,-175.646 158.309,-164.057 158.417,-153.465"/>
<polygon fill="black" stroke="black" points="161.918,-153.323 158.521,-143.288 154.919,-153.251 161.918,-153.323"/>
</g>
<!-- 11 -->
<g id="node12" class="node"><title>11</title>
<polygon fill="#399de5" fill-opacity="0.498039" stroke="black" points="319.307,-143 228.23,-143 228.23,-93 319.307,-93 319.307,-143"/>
<text text-anchor="middle" x="273.769" y="-127.8" font-family="Times,serif" font-size="14.00">gini = 0.444</text>
<text text-anchor="middle" x="273.769" y="-113.8" font-family="Times,serif" font-size="14.00">samples = 3</text>
<text text-anchor="middle" x="273.769" y="-99.8" font-family="Times,serif" font-size="14.00">value = [1, 2]</text>
</g>
<!-- 10&#45;&gt;11 -->
<g id="edge11" class="edge"><title>10&#45;&gt;11</title>
<path fill="none" stroke="black" d="M274.452,-185.992C274.347,-175.646 274.228,-164.057 274.12,-153.465"/>
<polygon fill="black" stroke="black" points="277.618,-153.251 274.016,-143.288 270.619,-153.323 277.618,-153.251"/>
</g>
<!-- 12 -->
<g id="node13" class="node"><title>12</title>
<polygon fill="#399de5" fill-opacity="0.964706" stroke="black" points="435.807,-150 337.73,-150 337.73,-86 435.807,-86 435.807,-150"/>
<text text-anchor="middle" x="386.769" y="-134.8" font-family="Times,serif" font-size="14.00">X1 &lt;= 1.24</text>
<text text-anchor="middle" x="386.769" y="-120.8" font-family="Times,serif" font-size="14.00">gini = 0.064</text>
<text text-anchor="middle" x="386.769" y="-106.8" font-family="Times,serif" font-size="14.00">samples = 30</text>
<text text-anchor="middle" x="386.769" y="-92.8" font-family="Times,serif" font-size="14.00">value = [1, 29]</text>
</g>
<!-- 10&#45;&gt;12 -->
<g id="edge12" class="edge"><title>10&#45;&gt;12</title>
<path fill="none" stroke="black" d="M310.206,-185.992C320.726,-176.787 332.371,-166.598 343.337,-157.002"/>
<polygon fill="black" stroke="black" points="345.956,-159.362 351.177,-150.142 341.347,-154.094 345.956,-159.362"/>
</g>
<!-- 13 -->
<g id="node14" class="node"><title>13</title>
<polygon fill="#399de5" stroke="black" points="378.807,-50 280.73,-50 280.73,-0 378.807,-0 378.807,-50"/>
<text text-anchor="middle" x="329.769" y="-34.8" font-family="Times,serif" font-size="14.00">gini = 0.0</text>
<text text-anchor="middle" x="329.769" y="-20.8" font-family="Times,serif" font-size="14.00">samples = 26</text>
<text text-anchor="middle" x="329.769" y="-6.8" font-family="Times,serif" font-size="14.00">value = [0, 26]</text>
</g>
<!-- 12&#45;&gt;13 -->
<g id="edge13" class="edge"><title>12&#45;&gt;13</title>
<path fill="none" stroke="black" d="M367.312,-85.9375C361.797,-77.133 355.778,-67.5239 350.207,-58.6297"/>
<polygon fill="black" stroke="black" points="353.095,-56.6469 344.82,-50.0301 347.163,-60.3628 353.095,-56.6469"/>
</g>
<!-- 14 -->
<g id="node15" class="node"><title>14</title>
<polygon fill="#399de5" fill-opacity="0.666667" stroke="black" points="488.307,-50 397.23,-50 397.23,-0 488.307,-0 488.307,-50"/>
<text text-anchor="middle" x="442.769" y="-34.8" font-family="Times,serif" font-size="14.00">gini = 0.375</text>
<text text-anchor="middle" x="442.769" y="-20.8" font-family="Times,serif" font-size="14.00">samples = 4</text>
<text text-anchor="middle" x="442.769" y="-6.8" font-family="Times,serif" font-size="14.00">value = [1, 3]</text>
</g>
<!-- 12&#45;&gt;14 -->
<g id="edge14" class="edge"><title>12&#45;&gt;14</title>
<path fill="none" stroke="black" d="M405.884,-85.9375C411.302,-77.133 417.215,-67.5239 422.689,-58.6297"/>
<polygon fill="black" stroke="black" points="425.721,-60.381 427.981,-50.0301 419.759,-56.7123 425.721,-60.381"/>
</g>
<!-- 17 -->
<g id="node18" class="node"><title>17</title>
<polygon fill="#399de5" fill-opacity="0.956863" stroke="black" points="623.307,-550 518.23,-550 518.23,-486 623.307,-486 623.307,-550"/>
<text text-anchor="middle" x="570.769" y="-534.8" font-family="Times,serif" font-size="14.00">X2 &lt;= 0.632</text>
<text text-anchor="middle" x="570.769" y="-520.8" font-family="Times,serif" font-size="14.00">gini = 0.077</text>
<text text-anchor="middle" x="570.769" y="-506.8" font-family="Times,serif" font-size="14.00">samples = 149</text>
<text text-anchor="middle" x="570.769" y="-492.8" font-family="Times,serif" font-size="14.00">value = [6, 143]</text>
</g>
<!-- 16&#45;&gt;17 -->
<g id="edge17" class="edge"><title>16&#45;&gt;17</title>
<path fill="none" stroke="black" d="M570.769,-585.992C570.769,-577.859 570.769,-568.959 570.769,-560.378"/>
<polygon fill="black" stroke="black" points="574.269,-560.142 570.769,-550.142 567.269,-560.142 574.269,-560.142"/>
</g>
<!-- 34 -->
<g id="node35" class="node"><title>34</title>
<polygon fill="#e58139" stroke="black" points="733.307,-543 642.23,-543 642.23,-493 733.307,-493 733.307,-543"/>
<text text-anchor="middle" x="687.769" y="-527.8" font-family="Times,serif" font-size="14.00">gini = 0.0</text>
<text text-anchor="middle" x="687.769" y="-513.8" font-family="Times,serif" font-size="14.00">samples = 9</text>
<text text-anchor="middle" x="687.769" y="-499.8" font-family="Times,serif" font-size="14.00">value = [9, 0]</text>
</g>
<!-- 16&#45;&gt;34 -->
<g id="edge34" class="edge"><title>16&#45;&gt;34</title>
<path fill="none" stroke="black" d="M607.788,-585.992C621.555,-574.461 637.166,-561.385 650.918,-549.866"/>
<polygon fill="black" stroke="black" points="653.353,-552.392 658.772,-543.288 648.859,-547.026 653.353,-552.392"/>
</g>
<!-- 18 -->
<g id="node19" class="node"><title>18</title>
<polygon fill="#399de5" fill-opacity="0.870588" stroke="black" points="619.807,-450 521.73,-450 521.73,-386 619.807,-386 619.807,-450"/>
<text text-anchor="middle" x="570.769" y="-434.8" font-family="Times,serif" font-size="14.00">X2 &lt;= 0.626</text>
<text text-anchor="middle" x="570.769" y="-420.8" font-family="Times,serif" font-size="14.00">gini = 0.202</text>
<text text-anchor="middle" x="570.769" y="-406.8" font-family="Times,serif" font-size="14.00">samples = 35</text>
<text text-anchor="middle" x="570.769" y="-392.8" font-family="Times,serif" font-size="14.00">value = [4, 31]</text>
</g>
<!-- 17&#45;&gt;18 -->
<g id="edge18" class="edge"><title>17&#45;&gt;18</title>
<path fill="none" stroke="black" d="M570.769,-485.992C570.769,-477.859 570.769,-468.959 570.769,-460.378"/>
<polygon fill="black" stroke="black" points="574.269,-460.142 570.769,-450.142 567.269,-460.142 574.269,-460.142"/>
</g>
<!-- 25 -->
<g id="node26" class="node"><title>25</title>
<polygon fill="#399de5" fill-opacity="0.980392" stroke="black" points="789.293,-450 684.244,-450 684.244,-386 789.293,-386 789.293,-450"/>
<text text-anchor="middle" x="736.769" y="-434.8" font-family="Times,serif" font-size="14.00">X2 &lt;= 0.805</text>
<text text-anchor="middle" x="736.769" y="-420.8" font-family="Times,serif" font-size="14.00">gini = 0.034</text>
<text text-anchor="middle" x="736.769" y="-406.8" font-family="Times,serif" font-size="14.00">samples = 114</text>
<text text-anchor="middle" x="736.769" y="-392.8" font-family="Times,serif" font-size="14.00">value = [2, 112]</text>
</g>
<!-- 17&#45;&gt;25 -->
<g id="edge25" class="edge"><title>17&#45;&gt;25</title>
<path fill="none" stroke="black" d="M623.292,-485.992C639.793,-476.251 658.16,-465.408 675.227,-455.332"/>
<polygon fill="black" stroke="black" points="677.185,-458.24 684.017,-450.142 673.626,-452.212 677.185,-458.24"/>
</g>
<!-- 19 -->
<g id="node20" class="node"><title>19</title>
<polygon fill="#399de5" fill-opacity="0.901961" stroke="black" points="559.807,-350 461.73,-350 461.73,-286 559.807,-286 559.807,-350"/>
<text text-anchor="middle" x="510.769" y="-334.8" font-family="Times,serif" font-size="14.00">X1 &lt;= &#45;0.34</text>
<text text-anchor="middle" x="510.769" y="-320.8" font-family="Times,serif" font-size="14.00">gini = 0.161</text>
<text text-anchor="middle" x="510.769" y="-306.8" font-family="Times,serif" font-size="14.00">samples = 34</text>
<text text-anchor="middle" x="510.769" y="-292.8" font-family="Times,serif" font-size="14.00">value = [3, 31]</text>
</g>
<!-- 18&#45;&gt;19 -->
<g id="edge19" class="edge"><title>18&#45;&gt;19</title>
<path fill="none" stroke="black" d="M551.784,-385.992C546.477,-377.323 540.635,-367.782 535.065,-358.685"/>
<polygon fill="black" stroke="black" points="538.042,-356.843 529.835,-350.142 532.072,-360.499 538.042,-356.843"/>
</g>
<!-- 24 -->
<g id="node25" class="node"><title>24</title>
<polygon fill="#e58139" stroke="black" points="669.307,-343 578.23,-343 578.23,-293 669.307,-293 669.307,-343"/>
<text text-anchor="middle" x="623.769" y="-327.8" font-family="Times,serif" font-size="14.00">gini = 0.0</text>
<text text-anchor="middle" x="623.769" y="-313.8" font-family="Times,serif" font-size="14.00">samples = 1</text>
<text text-anchor="middle" x="623.769" y="-299.8" font-family="Times,serif" font-size="14.00">value = [1, 0]</text>
</g>
<!-- 18&#45;&gt;24 -->
<g id="edge24" class="edge"><title>18&#45;&gt;24</title>
<path fill="none" stroke="black" d="M587.538,-385.992C593.367,-375.215 599.924,-363.09 605.842,-352.146"/>
<polygon fill="black" stroke="black" points="608.955,-353.749 610.633,-343.288 602.798,-350.419 608.955,-353.749"/>
</g>
<!-- 20 -->
<g id="node21" class="node"><title>20</title>
<polygon fill="#399de5" stroke="black" points="497.807,-243 399.73,-243 399.73,-193 497.807,-193 497.807,-243"/>
<text text-anchor="middle" x="448.769" y="-227.8" font-family="Times,serif" font-size="14.00">gini = 0.0</text>
<text text-anchor="middle" x="448.769" y="-213.8" font-family="Times,serif" font-size="14.00">samples = 14</text>
<text text-anchor="middle" x="448.769" y="-199.8" font-family="Times,serif" font-size="14.00">value = [0, 14]</text>
</g>
<!-- 19&#45;&gt;20 -->
<g id="edge20" class="edge"><title>19&#45;&gt;20</title>
<path fill="none" stroke="black" d="M491.151,-285.992C484.265,-275.107 476.508,-262.847 469.531,-251.818"/>
<polygon fill="black" stroke="black" points="472.438,-249.867 464.134,-243.288 466.523,-253.61 472.438,-249.867"/>
</g>
<!-- 21 -->
<g id="node22" class="node"><title>21</title>
<polygon fill="#399de5" fill-opacity="0.823529" stroke="black" points="614.807,-250 516.73,-250 516.73,-186 614.807,-186 614.807,-250"/>
<text text-anchor="middle" x="565.769" y="-234.8" font-family="Times,serif" font-size="14.00">X1 &lt;= 0.269</text>
<text text-anchor="middle" x="565.769" y="-220.8" font-family="Times,serif" font-size="14.00">gini = 0.255</text>
<text text-anchor="middle" x="565.769" y="-206.8" font-family="Times,serif" font-size="14.00">samples = 20</text>
<text text-anchor="middle" x="565.769" y="-192.8" font-family="Times,serif" font-size="14.00">value = [3, 17]</text>
</g>
<!-- 19&#45;&gt;21 -->
<g id="edge21" class="edge"><title>19&#45;&gt;21</title>
<path fill="none" stroke="black" d="M528.171,-285.992C532.986,-277.413 538.281,-267.978 543.338,-258.966"/>
<polygon fill="black" stroke="black" points="546.449,-260.576 548.291,-250.142 540.344,-257.15 546.449,-260.576"/>
</g>
<!-- 22 -->
<g id="node23" class="node"><title>22</title>
<polygon fill="none" stroke="black" points="550.307,-143 459.23,-143 459.23,-93 550.307,-93 550.307,-143"/>
<text text-anchor="middle" x="504.769" y="-127.8" font-family="Times,serif" font-size="14.00">gini = 0.5</text>
<text text-anchor="middle" x="504.769" y="-113.8" font-family="Times,serif" font-size="14.00">samples = 6</text>
<text text-anchor="middle" x="504.769" y="-99.8" font-family="Times,serif" font-size="14.00">value = [3, 3]</text>
</g>
<!-- 21&#45;&gt;22 -->
<g id="edge22" class="edge"><title>21&#45;&gt;22</title>
<path fill="none" stroke="black" d="M546.468,-185.992C539.692,-175.107 532.061,-162.847 525.196,-151.818"/>
<polygon fill="black" stroke="black" points="528.142,-149.928 519.886,-143.288 522.199,-153.627 528.142,-149.928"/>
</g>
<!-- 23 -->
<g id="node24" class="node"><title>23</title>
<polygon fill="#399de5" stroke="black" points="666.807,-143 568.73,-143 568.73,-93 666.807,-93 666.807,-143"/>
<text text-anchor="middle" x="617.769" y="-127.8" font-family="Times,serif" font-size="14.00">gini = 0.0</text>
<text text-anchor="middle" x="617.769" y="-113.8" font-family="Times,serif" font-size="14.00">samples = 14</text>
<text text-anchor="middle" x="617.769" y="-99.8" font-family="Times,serif" font-size="14.00">value = [0, 14]</text>
</g>
<!-- 21&#45;&gt;23 -->
<g id="edge23" class="edge"><title>21&#45;&gt;23</title>
<path fill="none" stroke="black" d="M582.222,-185.992C587.94,-175.215 594.374,-163.09 600.181,-152.146"/>
<polygon fill="black" stroke="black" points="603.286,-153.762 604.881,-143.288 597.102,-150.481 603.286,-153.762"/>
</g>
<!-- 26 -->
<g id="node27" class="node"><title>26</title>
<polygon fill="#399de5" fill-opacity="0.949020" stroke="black" points="785.807,-350 687.73,-350 687.73,-286 785.807,-286 785.807,-350"/>
<text text-anchor="middle" x="736.769" y="-334.8" font-family="Times,serif" font-size="14.00">X2 &lt;= 0.801</text>
<text text-anchor="middle" x="736.769" y="-320.8" font-family="Times,serif" font-size="14.00">gini = 0.093</text>
<text text-anchor="middle" x="736.769" y="-306.8" font-family="Times,serif" font-size="14.00">samples = 41</text>
<text text-anchor="middle" x="736.769" y="-292.8" font-family="Times,serif" font-size="14.00">value = [2, 39]</text>
</g>
<!-- 25&#45;&gt;26 -->
<g id="edge26" class="edge"><title>25&#45;&gt;26</title>
<path fill="none" stroke="black" d="M736.769,-385.992C736.769,-377.859 736.769,-368.959 736.769,-360.378"/>
<polygon fill="black" stroke="black" points="740.269,-360.142 736.769,-350.142 733.269,-360.142 740.269,-360.142"/>
</g>
<!-- 33 -->
<g id="node34" class="node"><title>33</title>
<polygon fill="#399de5" stroke="black" points="902.807,-343 804.73,-343 804.73,-293 902.807,-293 902.807,-343"/>
<text text-anchor="middle" x="853.769" y="-327.8" font-family="Times,serif" font-size="14.00">gini = 0.0</text>
<text text-anchor="middle" x="853.769" y="-313.8" font-family="Times,serif" font-size="14.00">samples = 73</text>
<text text-anchor="middle" x="853.769" y="-299.8" font-family="Times,serif" font-size="14.00">value = [0, 73]</text>
</g>
<!-- 25&#45;&gt;33 -->
<g id="edge33" class="edge"><title>25&#45;&gt;33</title>
<path fill="none" stroke="black" d="M773.788,-385.992C787.555,-374.461 803.166,-361.385 816.918,-349.866"/>
<polygon fill="black" stroke="black" points="819.353,-352.392 824.772,-343.288 814.859,-347.026 819.353,-352.392"/>
</g>
<!-- 27 -->
<g id="node28" class="node"><title>27</title>
<polygon fill="#399de5" fill-opacity="0.972549" stroke="black" points="785.807,-250 687.73,-250 687.73,-186 785.807,-186 785.807,-250"/>
<text text-anchor="middle" x="736.769" y="-234.8" font-family="Times,serif" font-size="14.00">X1 &lt;= 0.167</text>
<text text-anchor="middle" x="736.769" y="-220.8" font-family="Times,serif" font-size="14.00">gini = 0.049</text>
<text text-anchor="middle" x="736.769" y="-206.8" font-family="Times,serif" font-size="14.00">samples = 40</text>
<text text-anchor="middle" x="736.769" y="-192.8" font-family="Times,serif" font-size="14.00">value = [1, 39]</text>
</g>
<!-- 26&#45;&gt;27 -->
<g id="edge27" class="edge"><title>26&#45;&gt;27</title>
<path fill="none" stroke="black" d="M736.769,-285.992C736.769,-277.859 736.769,-268.959 736.769,-260.378"/>
<polygon fill="black" stroke="black" points="740.269,-260.142 736.769,-250.142 733.269,-260.142 740.269,-260.142"/>
</g>
<!-- 32 -->
<g id="node33" class="node"><title>32</title>
<polygon fill="#e58139" stroke="black" points="895.307,-243 804.23,-243 804.23,-193 895.307,-193 895.307,-243"/>
<text text-anchor="middle" x="849.769" y="-227.8" font-family="Times,serif" font-size="14.00">gini = 0.0</text>
<text text-anchor="middle" x="849.769" y="-213.8" font-family="Times,serif" font-size="14.00">samples = 1</text>
<text text-anchor="middle" x="849.769" y="-199.8" font-family="Times,serif" font-size="14.00">value = [1, 0]</text>
</g>
<!-- 26&#45;&gt;32 -->
<g id="edge32" class="edge"><title>26&#45;&gt;32</title>
<path fill="none" stroke="black" d="M772.522,-285.992C785.819,-274.461 800.896,-261.385 814.178,-249.866"/>
<polygon fill="black" stroke="black" points="816.502,-252.484 821.763,-243.288 811.916,-247.195 816.502,-252.484"/>
</g>
<!-- 28 -->
<g id="node29" class="node"><title>28</title>
<polygon fill="#399de5" fill-opacity="0.949020" stroke="black" points="783.807,-150 685.73,-150 685.73,-86 783.807,-86 783.807,-150"/>
<text text-anchor="middle" x="734.769" y="-134.8" font-family="Times,serif" font-size="14.00">X1 &lt;= 0.061</text>
<text text-anchor="middle" x="734.769" y="-120.8" font-family="Times,serif" font-size="14.00">gini = 0.095</text>
<text text-anchor="middle" x="734.769" y="-106.8" font-family="Times,serif" font-size="14.00">samples = 20</text>
<text text-anchor="middle" x="734.769" y="-92.8" font-family="Times,serif" font-size="14.00">value = [1, 19]</text>
</g>
<!-- 27&#45;&gt;28 -->
<g id="edge28" class="edge"><title>27&#45;&gt;28</title>
<path fill="none" stroke="black" d="M736.136,-185.992C735.97,-177.859 735.788,-168.959 735.613,-160.378"/>
<polygon fill="black" stroke="black" points="739.108,-160.069 735.404,-150.142 732.109,-160.212 739.108,-160.069"/>
</g>
<!-- 31 -->
<g id="node32" class="node"><title>31</title>
<polygon fill="#399de5" stroke="black" points="900.807,-143 802.73,-143 802.73,-93 900.807,-93 900.807,-143"/>
<text text-anchor="middle" x="851.769" y="-127.8" font-family="Times,serif" font-size="14.00">gini = 0.0</text>
<text text-anchor="middle" x="851.769" y="-113.8" font-family="Times,serif" font-size="14.00">samples = 20</text>
<text text-anchor="middle" x="851.769" y="-99.8" font-family="Times,serif" font-size="14.00">value = [0, 20]</text>
</g>
<!-- 27&#45;&gt;31 -->
<g id="edge31" class="edge"><title>27&#45;&gt;31</title>
<path fill="none" stroke="black" d="M773.155,-185.992C786.687,-174.461 802.031,-161.385 815.548,-149.866"/>
<polygon fill="black" stroke="black" points="817.927,-152.438 823.268,-143.288 813.386,-147.11 817.927,-152.438"/>
</g>
<!-- 29 -->
<g id="node30" class="node"><title>29</title>
<polygon fill="#399de5" stroke="black" points="726.807,-50 628.73,-50 628.73,-0 726.807,-0 726.807,-50"/>
<text text-anchor="middle" x="677.769" y="-34.8" font-family="Times,serif" font-size="14.00">gini = 0.0</text>
<text text-anchor="middle" x="677.769" y="-20.8" font-family="Times,serif" font-size="14.00">samples = 19</text>
<text text-anchor="middle" x="677.769" y="-6.8" font-family="Times,serif" font-size="14.00">value = [0, 19]</text>
</g>
<!-- 28&#45;&gt;29 -->
<g id="edge29" class="edge"><title>28&#45;&gt;29</title>
<path fill="none" stroke="black" d="M715.312,-85.9375C709.797,-77.133 703.778,-67.5239 698.207,-58.6297"/>
<polygon fill="black" stroke="black" points="701.095,-56.6469 692.82,-50.0301 695.163,-60.3628 701.095,-56.6469"/>
</g>
<!-- 30 -->
<g id="node31" class="node"><title>30</title>
<polygon fill="#e58139" stroke="black" points="836.307,-50 745.23,-50 745.23,-0 836.307,-0 836.307,-50"/>
<text text-anchor="middle" x="790.769" y="-34.8" font-family="Times,serif" font-size="14.00">gini = 0.0</text>
<text text-anchor="middle" x="790.769" y="-20.8" font-family="Times,serif" font-size="14.00">samples = 1</text>
<text text-anchor="middle" x="790.769" y="-6.8" font-family="Times,serif" font-size="14.00">value = [1, 0]</text>
</g>
<!-- 28&#45;&gt;30 -->
<g id="edge30" class="edge"><title>28&#45;&gt;30</title>
<path fill="none" stroke="black" d="M753.884,-85.9375C759.302,-77.133 765.215,-67.5239 770.689,-58.6297"/>
<polygon fill="black" stroke="black" points="773.721,-60.381 775.981,-50.0301 767.759,-56.7123 773.721,-60.381"/>
</g>
</g>
</svg>
