<?xml version="1.0" encoding="UTF-8" standalone="no"?>
<!DOCTYPE svg PUBLIC "-//W3C//DTD SVG 1.1//EN"
 "http://www.w3.org/Graphics/SVG/1.1/DTD/svg11.dtd">
<!-- Generated by graphviz version 2.38.0 (20140413.2041)
 -->
<!-- Title: Tree Pages: 1 -->
<svg width="428pt" height="558pt"
 viewBox="0.00 0.00 427.54 558.00" xmlns="http://www.w3.org/2000/svg" xmlns:xlink="http://www.w3.org/1999/xlink">
<g id="graph0" class="graph" transform="scale(1 1) rotate(0) translate(4 554)">
<title>Tree</title>
<polygon fill="white" stroke="none" points="-4,4 -4,-554 423.537,-554 423.537,4 -4,4"/>
<!-- 0 -->
<g id="node1" class="node"><title>0</title>
<polygon fill="#e58139" fill-opacity="0.011765" stroke="black" points="207.584,-550 58.953,-550 58.953,-486 207.584,-486 207.584,-550"/>
<text text-anchor="middle" x="133.269" y="-534.8" font-family="Times,serif" font-size="14.00">petal width (cm) &lt;= 0.8</text>
<text text-anchor="middle" x="133.269" y="-520.8" font-family="Times,serif" font-size="14.00">gini = 0.667</text>
<text text-anchor="middle" x="133.269" y="-506.8" font-family="Times,serif" font-size="14.00">samples = 112</text>
<text text-anchor="middle" x="133.269" y="-492.8" font-family="Times,serif" font-size="14.00">value = [38, 37, 37]</text>
</g>
<!-- 1 -->
<g id="node2" class="node"><title>1</title>
<polygon fill="#e58139" stroke="black" points="112.307,-443 0.230497,-443 0.230497,-393 112.307,-393 112.307,-443"/>
<text text-anchor="middle" x="56.2686" y="-427.8" font-family="Times,serif" font-size="14.00">gini = 0.0</text>
<text text-anchor="middle" x="56.2686" y="-413.8" font-family="Times,serif" font-size="14.00">samples = 38</text>
<text text-anchor="middle" x="56.2686" y="-399.8" font-family="Times,serif" font-size="14.00">value = [38, 0, 0]</text>
</g>
<!-- 0&#45;&gt;1 -->
<g id="edge1" class="edge"><title>0&#45;&gt;1</title>
<path fill="none" stroke="black" d="M108.905,-485.992C100.184,-474.892 90.3377,-462.361 81.5408,-451.165"/>
<polygon fill="black" stroke="black" points="84.2821,-448.988 75.3517,-443.288 78.7778,-453.313 84.2821,-448.988"/>
<text text-anchor="middle" x="72.3731" y="-463.91" font-family="Times,serif" font-size="14.00">True</text>
</g>
<!-- 2 -->
<g id="node3" class="node"><title>2</title>
<polygon fill="none" stroke="black" points="289.688,-450 130.85,-450 130.85,-386 289.688,-386 289.688,-450"/>
<text text-anchor="middle" x="210.269" y="-434.8" font-family="Times,serif" font-size="14.00">petal length (cm) &lt;= 4.75</text>
<text text-anchor="middle" x="210.269" y="-420.8" font-family="Times,serif" font-size="14.00">gini = 0.5</text>
<text text-anchor="middle" x="210.269" y="-406.8" font-family="Times,serif" font-size="14.00">samples = 74</text>
<text text-anchor="middle" x="210.269" y="-392.8" font-family="Times,serif" font-size="14.00">value = [0, 37, 37]</text>
</g>
<!-- 0&#45;&gt;2 -->
<g id="edge2" class="edge"><title>0&#45;&gt;2</title>
<path fill="none" stroke="black" d="M157.632,-485.992C164.584,-477.144 172.25,-467.388 179.529,-458.123"/>
<polygon fill="black" stroke="black" points="182.373,-460.168 185.799,-450.142 176.869,-455.843 182.373,-460.168"/>
<text text-anchor="middle" x="188.778" y="-470.764" font-family="Times,serif" font-size="14.00">False</text>
</g>
<!-- 3 -->
<g id="node4" class="node"><title>3</title>
<polygon fill="#39e581" stroke="black" points="190.307,-343 78.2305,-343 78.2305,-293 190.307,-293 190.307,-343"/>
<text text-anchor="middle" x="134.269" y="-327.8" font-family="Times,serif" font-size="14.00">gini = 0.0</text>
<text text-anchor="middle" x="134.269" y="-313.8" font-family="Times,serif" font-size="14.00">samples = 32</text>
<text text-anchor="middle" x="134.269" y="-299.8" font-family="Times,serif" font-size="14.00">value = [0, 32, 0]</text>
</g>
<!-- 2&#45;&gt;3 -->
<g id="edge3" class="edge"><title>2&#45;&gt;3</title>
<path fill="none" stroke="black" d="M186.222,-385.992C177.697,-375 168.084,-362.604 159.466,-351.491"/>
<polygon fill="black" stroke="black" points="161.998,-349.045 153.104,-343.288 156.466,-353.335 161.998,-349.045"/>
</g>
<!-- 4 -->
<g id="node5" class="node"><title>4</title>
<polygon fill="#8139e5" fill-opacity="0.866667" stroke="black" points="364.084,-350 208.453,-350 208.453,-286 364.084,-286 364.084,-350"/>
<text text-anchor="middle" x="286.269" y="-334.8" font-family="Times,serif" font-size="14.00">petal width (cm) &lt;= 1.75</text>
<text text-anchor="middle" x="286.269" y="-320.8" font-family="Times,serif" font-size="14.00">gini = 0.21</text>
<text text-anchor="middle" x="286.269" y="-306.8" font-family="Times,serif" font-size="14.00">samples = 42</text>
<text text-anchor="middle" x="286.269" y="-292.8" font-family="Times,serif" font-size="14.00">value = [0, 5, 37]</text>
</g>
<!-- 2&#45;&gt;4 -->
<g id="edge4" class="edge"><title>2&#45;&gt;4</title>
<path fill="none" stroke="black" d="M234.315,-385.992C241.177,-377.144 248.743,-367.388 255.928,-358.123"/>
<polygon fill="black" stroke="black" points="258.755,-360.19 262.117,-350.142 253.223,-355.9 258.755,-360.19"/>
</g>
<!-- 5 -->
<g id="node6" class="node"><title>5</title>
<polygon fill="none" stroke="black" points="288.688,-250 129.85,-250 129.85,-186 288.688,-186 288.688,-250"/>
<text text-anchor="middle" x="209.269" y="-234.8" font-family="Times,serif" font-size="14.00">petal length (cm) &lt;= 4.95</text>
<text text-anchor="middle" x="209.269" y="-220.8" font-family="Times,serif" font-size="14.00">gini = 0.5</text>
<text text-anchor="middle" x="209.269" y="-206.8" font-family="Times,serif" font-size="14.00">samples = 8</text>
<text text-anchor="middle" x="209.269" y="-192.8" font-family="Times,serif" font-size="14.00">value = [0, 4, 4]</text>
</g>
<!-- 4&#45;&gt;5 -->
<g id="edge5" class="edge"><title>4&#45;&gt;5</title>
<path fill="none" stroke="black" d="M261.905,-285.992C254.953,-277.144 247.288,-267.388 240.008,-258.123"/>
<polygon fill="black" stroke="black" points="242.668,-255.843 233.738,-250.142 237.164,-260.168 242.668,-255.843"/>
</g>
<!-- 6 -->
<g id="node11" class="node"><title>6</title>
<polygon fill="#8139e5" fill-opacity="0.968627" stroke="black" points="419.307,-243 307.23,-243 307.23,-193 419.307,-193 419.307,-243"/>
<text text-anchor="middle" x="363.269" y="-227.8" font-family="Times,serif" font-size="14.00">gini = 0.057</text>
<text text-anchor="middle" x="363.269" y="-213.8" font-family="Times,serif" font-size="14.00">samples = 34</text>
<text text-anchor="middle" x="363.269" y="-199.8" font-family="Times,serif" font-size="14.00">value = [0, 1, 33]</text>
</g>
<!-- 4&#45;&gt;6 -->
<g id="edge10" class="edge"><title>4&#45;&gt;6</title>
<path fill="none" stroke="black" d="M310.632,-285.992C319.354,-274.892 329.199,-262.361 337.996,-251.165"/>
<polygon fill="black" stroke="black" points="340.759,-253.313 344.185,-243.288 335.255,-248.988 340.759,-253.313"/>
</g>
<!-- 7 -->
<g id="node7" class="node"><title>7</title>
<polygon fill="#39e581" stroke="black" points="187.807,-143 82.7304,-143 82.7304,-93 187.807,-93 187.807,-143"/>
<text text-anchor="middle" x="135.269" y="-127.8" font-family="Times,serif" font-size="14.00">gini = 0.0</text>
<text text-anchor="middle" x="135.269" y="-113.8" font-family="Times,serif" font-size="14.00">samples = 2</text>
<text text-anchor="middle" x="135.269" y="-99.8" font-family="Times,serif" font-size="14.00">value = [0, 2, 0]</text>
</g>
<!-- 5&#45;&gt;7 -->
<g id="edge6" class="edge"><title>5&#45;&gt;7</title>
<path fill="none" stroke="black" d="M185.854,-185.992C177.554,-175 168.194,-162.604 159.803,-151.491"/>
<polygon fill="black" stroke="black" points="162.427,-149.159 153.608,-143.288 156.841,-153.377 162.427,-149.159"/>
</g>
<!-- 8 -->
<g id="node8" class="node"><title>8</title>
<polygon fill="#8139e5" fill-opacity="0.498039" stroke="black" points="362.084,-150 206.453,-150 206.453,-86 362.084,-86 362.084,-150"/>
<text text-anchor="middle" x="284.269" y="-134.8" font-family="Times,serif" font-size="14.00">petal width (cm) &lt;= 1.55</text>
<text text-anchor="middle" x="284.269" y="-120.8" font-family="Times,serif" font-size="14.00">gini = 0.444</text>
<text text-anchor="middle" x="284.269" y="-106.8" font-family="Times,serif" font-size="14.00">samples = 6</text>
<text text-anchor="middle" x="284.269" y="-92.8" font-family="Times,serif" font-size="14.00">value = [0, 2, 4]</text>
</g>
<!-- 5&#45;&gt;8 -->
<g id="edge7" class="edge"><title>5&#45;&gt;8</title>
<path fill="none" stroke="black" d="M232.999,-185.992C239.77,-177.144 247.237,-167.388 254.328,-158.123"/>
<polygon fill="black" stroke="black" points="257.137,-160.211 260.435,-150.142 251.578,-155.957 257.137,-160.211"/>
</g>
<!-- 9 -->
<g id="node9" class="node"><title>9</title>
<polygon fill="#8139e5" stroke="black" points="274.807,-50 169.73,-50 169.73,-0 274.807,-0 274.807,-50"/>
<text text-anchor="middle" x="222.269" y="-34.8" font-family="Times,serif" font-size="14.00">gini = 0.0</text>
<text text-anchor="middle" x="222.269" y="-20.8" font-family="Times,serif" font-size="14.00">samples = 3</text>
<text text-anchor="middle" x="222.269" y="-6.8" font-family="Times,serif" font-size="14.00">value = [0, 0, 3]</text>
</g>
<!-- 8&#45;&gt;9 -->
<g id="edge8" class="edge"><title>8&#45;&gt;9</title>
<path fill="none" stroke="black" d="M263.105,-85.9375C257.044,-77.0413 250.423,-67.3236 244.311,-58.352"/>
<polygon fill="black" stroke="black" points="247.164,-56.3236 238.641,-50.0301 241.379,-60.265 247.164,-56.3236"/>
</g>
<!-- 10 -->
<g id="node10" class="node"><title>10</title>
<polygon fill="#39e581" fill-opacity="0.498039" stroke="black" points="398.807,-50 293.73,-50 293.73,-0 398.807,-0 398.807,-50"/>
<text text-anchor="middle" x="346.269" y="-34.8" font-family="Times,serif" font-size="14.00">gini = 0.444</text>
<text text-anchor="middle" x="346.269" y="-20.8" font-family="Times,serif" font-size="14.00">samples = 3</text>
<text text-anchor="middle" x="346.269" y="-6.8" font-family="Times,serif" font-size="14.00">value = [0, 2, 1]</text>
</g>
<!-- 8&#45;&gt;10 -->
<g id="edge9" class="edge"><title>8&#45;&gt;10</title>
<path fill="none" stroke="black" d="M305.432,-85.9375C311.493,-77.0413 318.114,-67.3236 324.227,-58.352"/>
<polygon fill="black" stroke="black" points="327.158,-60.265 329.896,-50.0301 321.373,-56.3236 327.158,-60.265"/>
</g>
</g>
</svg>
