<?xml version="1.0" encoding="UTF-8" standalone="no"?>
<!DOCTYPE svg PUBLIC "-//W3C//DTD SVG 1.1//EN"
 "http://www.w3.org/Graphics/SVG/1.1/DTD/svg11.dtd">
<!-- Generated by graphviz version 2.38.0 (20140413.2041)
 -->
<!-- Title: Tree Pages: 1 -->
<svg width="517pt" height="458pt"
 viewBox="0.00 0.00 517.04 458.00" xmlns="http://www.w3.org/2000/svg" xmlns:xlink="http://www.w3.org/1999/xlink">
<g id="graph0" class="graph" transform="scale(1 1) rotate(0) translate(4 454)">
<title>Tree</title>
<polygon fill="white" stroke="none" points="-4,4 -4,-454 513.037,-454 513.037,4 -4,4"/>
<!-- 0 -->
<g id="node1" class="node"><title>0</title>
<polygon fill="#8139e5" fill-opacity="0.011765" stroke="black" points="332.584,-450 183.953,-450 183.953,-386 332.584,-386 332.584,-450"/>
<text text-anchor="middle" x="258.269" y="-434.8" font-family="Times,serif" font-size="14.00">petal width (cm) &lt;= 0.8</text>
<text text-anchor="middle" x="258.269" y="-420.8" font-family="Times,serif" font-size="14.00">gini = 0.667</text>
<text text-anchor="middle" x="258.269" y="-406.8" font-family="Times,serif" font-size="14.00">samples = 112</text>
<text text-anchor="middle" x="258.269" y="-392.8" font-family="Times,serif" font-size="14.00">value = [37, 37, 38]</text>
</g>
<!-- 1 -->
<g id="node2" class="node"><title>1</title>
<polygon fill="#e58139" stroke="black" points="238.307,-343 126.23,-343 126.23,-293 238.307,-293 238.307,-343"/>
<text text-anchor="middle" x="182.269" y="-327.8" font-family="Times,serif" font-size="14.00">gini = 0.0</text>
<text text-anchor="middle" x="182.269" y="-313.8" font-family="Times,serif" font-size="14.00">samples = 37</text>
<text text-anchor="middle" x="182.269" y="-299.8" font-family="Times,serif" font-size="14.00">value = [37, 0, 0]</text>
</g>
<!-- 0&#45;&gt;1 -->
<g id="edge1" class="edge"><title>0&#45;&gt;1</title>
<path fill="none" stroke="black" d="M234.222,-385.992C225.697,-375 216.084,-362.604 207.466,-351.491"/>
<polygon fill="black" stroke="black" points="209.998,-349.045 201.104,-343.288 204.466,-353.335 209.998,-349.045"/>
<text text-anchor="middle" x="197.968" y="-363.89" font-family="Times,serif" font-size="14.00">True</text>
</g>
<!-- 2 -->
<g id="node3" class="node"><title>2</title>
<polygon fill="#8139e5" fill-opacity="0.027451" stroke="black" points="412.084,-350 256.453,-350 256.453,-286 412.084,-286 412.084,-350"/>
<text text-anchor="middle" x="334.269" y="-334.8" font-family="Times,serif" font-size="14.00">petal width (cm) &lt;= 1.75</text>
<text text-anchor="middle" x="334.269" y="-320.8" font-family="Times,serif" font-size="14.00">gini = 0.5</text>
<text text-anchor="middle" x="334.269" y="-306.8" font-family="Times,serif" font-size="14.00">samples = 75</text>
<text text-anchor="middle" x="334.269" y="-292.8" font-family="Times,serif" font-size="14.00">value = [0, 37, 38]</text>
</g>
<!-- 0&#45;&gt;2 -->
<g id="edge2" class="edge"><title>0&#45;&gt;2</title>
<path fill="none" stroke="black" d="M282.315,-385.992C289.177,-377.144 296.743,-367.388 303.928,-358.123"/>
<polygon fill="black" stroke="black" points="306.755,-360.19 310.117,-350.142 301.223,-355.9 306.755,-360.19"/>
<text text-anchor="middle" x="313.253" y="-370.745" font-family="Times,serif" font-size="14.00">False</text>
</g>
<!-- 3 -->
<g id="node4" class="node"><title>3</title>
<polygon fill="#39e581" fill-opacity="0.917647" stroke="black" points="336.688,-250 177.85,-250 177.85,-186 336.688,-186 336.688,-250"/>
<text text-anchor="middle" x="257.269" y="-234.8" font-family="Times,serif" font-size="14.00">petal length (cm) &lt;= 4.95</text>
<text text-anchor="middle" x="257.269" y="-220.8" font-family="Times,serif" font-size="14.00">gini = 0.142</text>
<text text-anchor="middle" x="257.269" y="-206.8" font-family="Times,serif" font-size="14.00">samples = 39</text>
<text text-anchor="middle" x="257.269" y="-192.8" font-family="Times,serif" font-size="14.00">value = [0, 36, 3]</text>
</g>
<!-- 2&#45;&gt;3 -->
<g id="edge3" class="edge"><title>2&#45;&gt;3</title>
<path fill="none" stroke="black" d="M309.905,-285.992C302.953,-277.144 295.288,-267.388 288.008,-258.123"/>
<polygon fill="black" stroke="black" points="290.668,-255.843 281.738,-250.142 285.164,-260.168 290.668,-255.843"/>
</g>
<!-- 4 -->
<g id="node11" class="node"><title>4</title>
<polygon fill="#8139e5" fill-opacity="0.972549" stroke="black" points="467.307,-243 355.23,-243 355.23,-193 467.307,-193 467.307,-243"/>
<text text-anchor="middle" x="411.269" y="-227.8" font-family="Times,serif" font-size="14.00">gini = 0.054</text>
<text text-anchor="middle" x="411.269" y="-213.8" font-family="Times,serif" font-size="14.00">samples = 36</text>
<text text-anchor="middle" x="411.269" y="-199.8" font-family="Times,serif" font-size="14.00">value = [0, 1, 35]</text>
</g>
<!-- 2&#45;&gt;4 -->
<g id="edge10" class="edge"><title>2&#45;&gt;4</title>
<path fill="none" stroke="black" d="M358.632,-285.992C367.354,-274.892 377.199,-262.361 385.996,-251.165"/>
<polygon fill="black" stroke="black" points="388.759,-253.313 392.185,-243.288 383.255,-248.988 388.759,-253.313"/>
</g>
<!-- 5 -->
<g id="node5" class="node"><title>5</title>
<polygon fill="#39e581" fill-opacity="0.972549" stroke="black" points="248.084,-150 92.453,-150 92.453,-86 248.084,-86 248.084,-150"/>
<text text-anchor="middle" x="170.269" y="-134.8" font-family="Times,serif" font-size="14.00">petal width (cm) &lt;= 1.65</text>
<text text-anchor="middle" x="170.269" y="-120.8" font-family="Times,serif" font-size="14.00">gini = 0.056</text>
<text text-anchor="middle" x="170.269" y="-106.8" font-family="Times,serif" font-size="14.00">samples = 35</text>
<text text-anchor="middle" x="170.269" y="-92.8" font-family="Times,serif" font-size="14.00">value = [0, 34, 1]</text>
</g>
<!-- 3&#45;&gt;5 -->
<g id="edge4" class="edge"><title>3&#45;&gt;5</title>
<path fill="none" stroke="black" d="M229.741,-185.992C221.807,-177.055 213.05,-167.191 204.751,-157.842"/>
<polygon fill="black" stroke="black" points="207.172,-155.297 197.915,-150.142 201.937,-159.944 207.172,-155.297"/>
</g>
<!-- 6 -->
<g id="node8" class="node"><title>6</title>
<polygon fill="none" stroke="black" points="422.084,-150 266.453,-150 266.453,-86 422.084,-86 422.084,-150"/>
<text text-anchor="middle" x="344.269" y="-134.8" font-family="Times,serif" font-size="14.00">petal width (cm) &lt;= 1.55</text>
<text text-anchor="middle" x="344.269" y="-120.8" font-family="Times,serif" font-size="14.00">gini = 0.5</text>
<text text-anchor="middle" x="344.269" y="-106.8" font-family="Times,serif" font-size="14.00">samples = 4</text>
<text text-anchor="middle" x="344.269" y="-92.8" font-family="Times,serif" font-size="14.00">value = [0, 2, 2]</text>
</g>
<!-- 3&#45;&gt;6 -->
<g id="edge7" class="edge"><title>3&#45;&gt;6</title>
<path fill="none" stroke="black" d="M284.796,-185.992C292.73,-177.055 301.487,-167.191 309.786,-157.842"/>
<polygon fill="black" stroke="black" points="312.6,-159.944 316.622,-150.142 307.365,-155.297 312.6,-159.944"/>
</g>
<!-- 9 -->
<g id="node6" class="node"><title>9</title>
<polygon fill="#39e581" stroke="black" points="112.307,-50 0.230497,-50 0.230497,-0 112.307,-0 112.307,-50"/>
<text text-anchor="middle" x="56.2686" y="-34.8" font-family="Times,serif" font-size="14.00">gini = 0.0</text>
<text text-anchor="middle" x="56.2686" y="-20.8" font-family="Times,serif" font-size="14.00">samples = 34</text>
<text text-anchor="middle" x="56.2686" y="-6.8" font-family="Times,serif" font-size="14.00">value = [0, 34, 0]</text>
</g>
<!-- 5&#45;&gt;9 -->
<g id="edge5" class="edge"><title>5&#45;&gt;9</title>
<path fill="none" stroke="black" d="M131.355,-85.9375C119.406,-76.3993 106.274,-65.9167 94.3795,-56.4219"/>
<polygon fill="black" stroke="black" points="96.3711,-53.5333 86.3722,-50.0301 92.004,-59.0041 96.3711,-53.5333"/>
</g>
<!-- 10 -->
<g id="node7" class="node"><title>10</title>
<polygon fill="#8139e5" stroke="black" points="235.807,-50 130.73,-50 130.73,-0 235.807,-0 235.807,-50"/>
<text text-anchor="middle" x="183.269" y="-34.8" font-family="Times,serif" font-size="14.00">gini = 0.0</text>
<text text-anchor="middle" x="183.269" y="-20.8" font-family="Times,serif" font-size="14.00">samples = 1</text>
<text text-anchor="middle" x="183.269" y="-6.8" font-family="Times,serif" font-size="14.00">value = [0, 0, 1]</text>
</g>
<!-- 5&#45;&gt;10 -->
<g id="edge6" class="edge"><title>5&#45;&gt;10</title>
<path fill="none" stroke="black" d="M174.706,-85.9375C175.898,-77.5916 177.194,-68.5226 178.408,-60.025"/>
<polygon fill="black" stroke="black" points="181.886,-60.4246 179.836,-50.0301 174.957,-59.4346 181.886,-60.4246"/>
</g>
<!-- 7 -->
<g id="node9" class="node"><title>7</title>
<polygon fill="#8139e5" stroke="black" points="384.807,-50 279.73,-50 279.73,-0 384.807,-0 384.807,-50"/>
<text text-anchor="middle" x="332.269" y="-34.8" font-family="Times,serif" font-size="14.00">gini = 0.0</text>
<text text-anchor="middle" x="332.269" y="-20.8" font-family="Times,serif" font-size="14.00">samples = 2</text>
<text text-anchor="middle" x="332.269" y="-6.8" font-family="Times,serif" font-size="14.00">value = [0, 0, 2]</text>
</g>
<!-- 6&#45;&gt;7 -->
<g id="edge8" class="edge"><title>6&#45;&gt;7</title>
<path fill="none" stroke="black" d="M340.172,-85.9375C339.072,-77.5916 337.876,-68.5226 336.755,-60.025"/>
<polygon fill="black" stroke="black" points="340.215,-59.4866 335.437,-50.0301 333.275,-60.4019 340.215,-59.4866"/>
</g>
<!-- 8 -->
<g id="node10" class="node"><title>8</title>
<polygon fill="#39e581" stroke="black" points="508.807,-50 403.73,-50 403.73,-0 508.807,-0 508.807,-50"/>
<text text-anchor="middle" x="456.269" y="-34.8" font-family="Times,serif" font-size="14.00">gini = 0.0</text>
<text text-anchor="middle" x="456.269" y="-20.8" font-family="Times,serif" font-size="14.00">samples = 2</text>
<text text-anchor="middle" x="456.269" y="-6.8" font-family="Times,serif" font-size="14.00">value = [0, 2, 0]</text>
</g>
<!-- 6&#45;&gt;8 -->
<g id="edge9" class="edge"><title>6&#45;&gt;8</title>
<path fill="none" stroke="black" d="M382.499,-85.9375C394.239,-76.3993 407.14,-65.9167 418.826,-56.4219"/>
<polygon fill="black" stroke="black" points="421.139,-59.0524 426.693,-50.0301 416.725,-53.6196 421.139,-59.0524"/>
</g>
</g>
</svg>
